<svg xmlns:xlink="http://www.w3.org/1999/xlink" xmlns="http://www.w3.org/2000/svg" stroke-width="0.501" stroke-linejoin="bevel" fill-rule="evenodd" version="1.1" overflow="visible" viewBox="0 0 75.75 93.75" x="0px" y="0px"><g fill="none" stroke="black" font-family="Times New Roman" font-size="16" transform="scale(1 -1)"><g transform="translate(0 -75)"><g><path d="M 34.891,1.207 C 34.335,1.269 33.768,1.323 33.217,1.417 C 32.884,1.473 32.549,1.522 32.217,1.58 C 31.923,1.632 31.628,1.697 31.334,1.751 C 30.679,1.873 30.009,2.043 29.364,2.214 C 28.118,2.545 26.907,2.929 25.714,3.411 C 25.439,3.478 25.164,3.555 24.897,3.644 C 24.488,3.778 24.088,3.924 23.682,4.069 C 23.179,4.25 22.655,4.474 22.171,4.7 C 21.48,5.022 20.807,5.352 20.143,5.724 C 18.153,6.838 16.249,8.237 14.562,9.771 C 11.668,12.405 9.295,15.446 7.299,18.803 C 6.793,19.653 6.32,20.519 5.879,21.399 C 5.019,22.961 4.273,24.571 3.643,26.258 C 2.352,29.704 1.638,33.355 1.603,37.028 C 1.594,37.098 1.59,37.169 1.587,37.242 C 1.58,37.381 1.574,37.521 1.587,37.663 C 1.526,39.095 1.552,39.717 1.596,40.338 C 1.61,40.605 1.628,40.873 1.65,41.141 C 1.614,41.171 1.575,41.202 1.536,41.232 C 1.475,41.28 1.394,41.324 1.328,41.371 L 1.317,41.427 L 1.373,41.438 C 1.464,41.375 1.566,41.31 1.659,41.24 C 1.704,41.753 1.765,42.264 1.844,42.771 C 1.816,42.793 1.787,42.814 1.76,42.836 C 1.732,42.854 1.726,42.894 1.745,42.922 C 1.764,42.949 1.803,42.955 1.831,42.936 C 1.842,42.928 1.854,42.919 1.865,42.91 C 1.911,43.19 1.962,43.469 2.021,43.747 C 2.023,43.778 2.025,43.795 2.028,43.812 C 2.162,44.557 2.314,45.295 2.495,46.029 C 2.296,46.198 2.097,46.366 1.898,46.536 C 1.868,46.561 1.864,46.606 1.889,46.636 C 1.914,46.666 1.959,46.67 1.989,46.645 C 2.169,46.491 2.351,46.341 2.535,46.19 C 2.544,46.229 2.554,46.267 2.565,46.307 C 2.628,46.553 2.685,46.803 2.756,47.047 C 2.961,47.747 3.159,48.466 3.41,49.151 C 3.527,49.468 3.634,49.79 3.753,50.106 C 3.968,50.672 4.197,51.235 4.44,51.793 C 4.444,51.802 4.448,51.813 4.453,51.823 C 4.439,51.835 4.425,51.847 4.411,51.859 C 4.376,51.886 4.369,51.941 4.396,51.976 C 4.424,52.012 4.478,52.019 4.514,51.991 C 4.516,51.989 4.518,51.987 4.52,51.986 C 4.77,52.584 5.043,53.174 5.364,53.734 C 5.37,53.749 5.372,53.753 5.375,53.758 C 5.601,54.196 5.83,54.643 6.075,55.073 C 6.057,55.089 6.039,55.104 6.021,55.12 C 5.911,55.212 5.802,55.31 5.687,55.399 C 5.612,55.457 5.528,55.51 5.456,55.571 C 5.425,55.595 5.418,55.641 5.441,55.673 C 5.465,55.704 5.512,55.711 5.543,55.688 C 5.747,55.524 5.951,55.372 6.149,55.202 C 6.152,55.207 6.155,55.212 6.159,55.218 C 6.189,55.271 6.22,55.323 6.256,55.373 C 6.437,55.758 6.553,55.947 6.671,56.135 C 6.926,56.541 7.19,56.941 7.461,57.334 C 7.624,57.581 7.79,57.824 7.96,58.065 C 8.532,58.872 9.118,59.643 9.747,60.408 C 10.08,60.814 10.428,61.238 10.788,61.621 C 11.044,61.892 11.291,62.177 11.552,62.443 C 12.593,63.495 13.649,64.521 14.802,65.451 C 14.889,65.521 14.976,65.591 15.064,65.661 C 15.019,65.703 14.972,65.748 14.927,65.792 C 14.893,65.823 14.891,65.876 14.922,65.91 C 14.952,65.944 15.006,65.945 15.039,65.915 C 15.092,65.864 15.145,65.816 15.198,65.769 C 15.637,66.117 16.084,66.462 16.538,66.787 C 16.819,66.988 17.105,67.182 17.388,67.38 C 17.904,67.74 18.457,68.084 18.999,68.407 C 21.124,69.678 23.352,70.735 25.699,71.527 C 25.832,71.571 25.966,71.616 26.103,71.637 C 26.37,71.798 26.659,71.907 26.95,72.014 C 28.01,72.401 29.115,72.757 30.207,73.041 C 31.165,73.291 32.148,73.523 33.124,73.691 C 33.683,73.787 34.24,73.862 34.8,73.946 C 35.435,74.041 36.095,74.084 36.736,74.131 C 38.842,74.282 41.069,74.18 43.149,73.811 C 43.605,73.73 44.086,73.644 44.535,73.527 C 44.965,73.416 45.415,73.314 45.838,73.178 C 47.08,72.776 48.298,72.343 49.508,71.844 C 50.82,71.304 52.095,70.68 53.348,70.017 C 53.348,70.016 53.349,70.016 53.365,70.008 C 54.199,69.795 54.997,69.505 55.795,69.176 C 56.347,68.948 56.886,68.686 57.414,68.408 C 58.336,67.923 59.227,67.39 60.077,66.787 C 60.449,66.523 60.83,66.255 61.187,65.97 C 61.656,65.596 62.111,65.213 62.563,64.817 C 62.695,64.701 62.821,64.574 62.952,64.456 C 64.392,63.147 65.683,61.62 66.834,60.055 C 66.873,60.002 66.911,59.949 66.95,59.896 C 67.036,59.838 67.122,59.779 67.209,59.721 C 67.312,59.651 67.412,59.574 67.514,59.502 C 68.31,58.941 69.086,58.361 69.868,57.782 C 69.911,57.749 69.919,57.687 69.887,57.645 C 69.854,57.602 69.792,57.593 69.75,57.626 C 68.917,58.253 68.09,58.885 67.24,59.489 C 67.957,58.469 68.614,57.408 69.215,56.316 C 69.577,55.955 69.938,55.594 70.311,55.243 C 70.342,55.211 70.343,55.159 70.312,55.128 C 70.28,55.096 70.228,55.095 70.196,55.127 C 69.943,55.376 69.694,55.63 69.448,55.886 C 69.454,55.876 69.459,55.866 69.465,55.857 C 73.228,49.906 75.045,42.997 74.629,35.894 C 74.575,34.992 74.493,34.086 74.305,32.786 C 74.307,32.784 74.306,32.782 74.306,32.781 C 74.306,32.78 74.306,32.779 74.304,32.78 C 74.221,32.078 74.099,31.384 73.954,30.698 C 73.91,30.496 73.867,30.297 73.822,30.103 C 73.815,30.058 73.807,30.013 73.799,29.969 C 73.963,29.846 74.127,29.723 74.291,29.6 C 74.318,29.581 74.324,29.541 74.305,29.514 C 74.285,29.486 74.245,29.48 74.218,29.5 C 74.067,29.601 73.918,29.703 73.769,29.805 C 73.607,28.919 73.409,28.043 73.17,27.175 C 72.787,25.786 72.312,24.427 71.717,23.114 C 71.531,22.702 71.33,22.302 71.125,21.9 C 70.891,21.444 70.628,20.958 70.352,20.526 C 70.085,20.108 69.826,19.687 69.541,19.282 C 69.695,19.164 69.832,19.04 69.977,18.911 L 69.987,18.862 L 69.937,18.852 C 69.778,18.924 69.62,18.996 69.467,19.082 C 69.45,19.091 69.433,19.1 69.418,19.11 C 69.348,19.014 69.278,18.918 69.21,18.825 C 69.1,18.645 68.989,18.468 68.876,18.294 C 68.829,18.219 68.78,18.146 68.733,18.073 C 68.812,18.023 68.891,17.972 68.971,17.923 C 69.015,17.895 69.026,17.836 68.999,17.793 C 68.971,17.749 68.912,17.737 68.868,17.765 C 68.789,17.814 68.71,17.866 68.631,17.918 C 68.233,17.319 67.814,16.73 67.385,16.154 C 65.964,14.255 64.348,12.489 62.572,10.904 C 62.873,10.722 63.178,10.545 63.489,10.376 C 63.537,10.348 63.554,10.284 63.526,10.236 C 63.498,10.187 63.434,10.17 63.386,10.198 C 63.058,10.38 62.736,10.57 62.418,10.768 C 62.25,10.621 62.081,10.475 61.911,10.33 C 61.636,10.072 61.358,9.817 61.075,9.567 C 61.133,9.528 61.19,9.49 61.248,9.452 C 61.278,9.434 61.287,9.394 61.269,9.364 C 61.251,9.335 61.211,9.326 61.181,9.344 C 61.108,9.385 61.036,9.428 60.965,9.469 C 58.045,6.909 54.672,4.807 51.085,3.394 C 50.787,3.276 50.486,3.161 50.184,3.049 C 50.19,3.024 50.186,2.998 50.171,2.976 C 50.144,2.937 50.089,2.929 50.051,2.956 C 50.036,2.965 50.022,2.975 50.008,2.984 C 49.403,2.765 48.788,2.561 48.175,2.388 C 47.925,2.318 47.675,2.247 47.426,2.176 C 46.891,2.023 46.336,1.908 45.794,1.782 C 45.274,1.66 44.722,1.568 44.194,1.482 C 42.925,1.275 41.667,1.143 40.384,1.069 C 39.353,1.01 38.31,1.004 37.279,1.044 C 36.481,1.074 35.685,1.118 34.891,1.207 Z M 39.499,1.393 C 40.134,1.41 40.797,1.433 41.428,1.502 C 41.747,1.537 42.067,1.566 42.385,1.613 C 40.031,1.345 37.648,1.317 35.289,1.538 C 35.603,1.501 35.916,1.475 36.232,1.456 C 36.425,1.443 36.621,1.425 36.816,1.419 C 37.141,1.409 37.468,1.389 37.793,1.384 C 38.363,1.373 38.93,1.379 39.499,1.393 Z M 33.857,1.704 C 34.092,1.654 34.33,1.625 34.567,1.601 C 34.649,1.592 34.732,1.584 35.138,1.55 C 34.709,1.59 34.282,1.638 33.857,1.704 Z M 43.551,1.748 C 43.905,1.805 44.26,1.867 44.56,1.922 C 43.916,1.808 43.215,1.706 42.512,1.628 C 43.171,1.69 43.361,1.716 43.551,1.748 Z M 33.155,1.805 C 33.223,1.78 33.539,1.73 33.857,1.704 C 33.621,1.727 33.387,1.761 33.155,1.805 Z M 40.311,1.79 C 40.248,1.822 40.187,1.854 40.126,1.886 C 39.802,1.858 39.477,1.834 39.15,1.814 C 38.516,1.775 37.873,1.758 37.24,1.773 C 37.427,1.765 37.625,1.758 37.823,1.754 C 38.643,1.734 39.476,1.746 40.311,1.79 Z M 46.157,2.624 C 46.54,2.716 46.921,2.814 47.301,2.92 C 47.481,2.97 47.664,3.012 47.844,3.069 C 48.31,3.215 48.775,3.361 49.242,3.507 C 49.214,3.526 49.187,3.545 49.161,3.564 C 47.935,3.213 46.694,2.92 45.453,2.675 C 44.655,2.517 43.862,2.373 43.068,2.249 C 43.067,2.246 43.065,2.243 43.064,2.241 C 43.04,2.2 42.985,2.187 42.944,2.21 C 42.934,2.215 42.925,2.22 42.916,2.225 C 42.076,2.097 41.233,1.989 40.384,1.91 C 40.437,1.873 40.492,1.838 40.548,1.803 C 42.441,1.916 44.346,2.191 46.157,2.624 Z M 31.816,2.042 C 32.014,1.981 32.215,1.946 32.417,1.913 C 32.58,1.885 32.744,1.859 33.155,1.805 C 32.705,1.87 32.259,1.951 31.816,2.042 Z M 34.308,2.089 C 34.26,2.098 34.221,2.125 34.194,2.162 C 33.167,2.255 32.146,2.393 31.131,2.577 C 31.068,2.578 31.005,2.58 30.943,2.583 C 32.548,2.23 34.182,1.987 35.826,1.857 C 35.316,1.908 34.807,1.984 34.308,2.089 Z M 29.098,2.685 C 29.257,2.61 29.423,2.567 29.589,2.525 C 29.985,2.425 30.383,2.327 31.113,2.195 C 30.403,2.332 29.714,2.502 29.098,2.685 Z M 48.616,2.914 C 48.7,2.94 48.784,2.968 48.865,3.003 C 47.966,2.702 47.032,2.437 46.099,2.233 C 46.949,2.423 47.788,2.645 48.616,2.914 Z M 34.236,2.517 C 33.893,2.546 33.549,2.583 33.206,2.629 C 33.1,2.643 32.996,2.657 32.891,2.672 C 32.907,2.663 32.922,2.654 32.938,2.646 C 33.171,2.599 33.393,2.573 33.613,2.552 C 33.827,2.531 34.044,2.511 34.259,2.491 C 34.251,2.498 34.243,2.507 34.236,2.517 Z M 30.002,2.801 C 30.216,2.749 30.399,2.705 30.583,2.664 C 30.623,2.661 30.663,2.659 30.703,2.657 C 30.479,2.7 30.255,2.746 30.002,2.801 Z M 32.522,2.725 C 32.188,2.774 31.855,2.826 31.519,2.879 C 31.403,2.897 31.289,2.916 31.173,2.937 C 31.123,2.938 31.073,2.94 31.024,2.941 C 31.243,2.9 31.465,2.859 31.689,2.822 C 31.992,2.769 32.301,2.719 32.61,2.675 C 32.581,2.691 32.552,2.708 32.522,2.725 Z M 38.836,2.729 C 38.382,3.062 37.941,3.418 37.512,3.783 C 36.204,4.893 34.976,6.099 33.728,7.274 C 33.248,7.726 32.756,8.158 32.273,8.605 C 32.245,8.629 32.243,8.675 32.268,8.703 C 32.292,8.732 32.338,8.734 32.366,8.709 C 32.545,8.54 32.739,8.384 32.919,8.216 C 33.5,7.671 34.089,7.132 34.671,6.586 C 35.847,5.481 37.049,4.332 38.332,3.349 C 38.59,3.151 38.861,2.934 39.134,2.744 C 39.774,2.778 40.413,2.83 41.045,2.892 C 41.277,2.915 41.509,2.939 41.741,2.967 C 40.907,3.527 40.099,4.153 39.338,4.802 C 37.726,6.173 36.201,7.62 34.656,9.064 C 34.636,9.083 34.634,9.116 34.653,9.136 C 34.672,9.156 34.706,9.158 34.725,9.139 C 35.864,8.075 37.002,6.992 38.179,5.968 C 38.901,5.341 39.625,4.714 40.389,4.138 C 40.923,3.733 41.459,3.359 42.01,3.001 C 42.843,3.106 43.675,3.244 44.503,3.411 C 44.494,3.418 44.485,3.424 44.477,3.432 C 43.897,3.903 43.317,4.371 42.749,4.859 C 41.624,5.825 40.536,6.86 39.463,7.885 C 38.517,8.788 37.55,9.668 36.599,10.565 L 36.598,10.601 L 36.635,10.602 C 36.986,10.274 37.341,9.949 37.698,9.627 C 38.407,8.986 39.1,8.324 39.809,7.683 C 40.623,6.947 41.436,6.214 42.256,5.485 C 43.03,4.797 43.799,4.103 44.582,3.426 C 45.754,3.666 46.917,3.966 48.066,4.32 C 47.986,4.375 47.906,4.429 47.827,4.484 C 46.633,5.298 45.432,6.105 44.249,6.936 C 42.149,8.412 40.033,9.913 38.198,11.717 C 38.17,11.744 38.169,11.791 38.196,11.818 C 38.222,11.846 38.269,11.847 38.296,11.82 C 38.518,11.614 38.732,11.398 38.956,11.195 C 39.386,10.806 39.831,10.435 40.278,10.068 C 40.602,9.802 40.94,9.547 41.274,9.294 C 42.384,8.452 43.527,7.674 44.681,6.894 C 45.321,6.46 45.968,6.036 46.611,5.608 C 47.199,5.215 47.779,4.812 48.361,4.413 C 49.278,4.705 50.185,5.033 51.081,5.393 C 49.642,6.079 48.289,6.96 47,7.89 C 44.975,9.35 43.019,11.088 41.324,12.922 L 41.326,12.989 L 41.393,12.987 C 42.801,11.464 44.344,10.099 45.982,8.831 C 46.62,8.337 47.298,7.854 47.975,7.416 C 48.473,7.094 48.971,6.794 49.478,6.489 C 49.851,6.264 50.246,6.068 50.626,5.854 C 50.847,5.727 51.074,5.604 51.301,5.483 C 52.036,5.785 52.762,6.109 53.479,6.455 C 53.422,6.482 53.366,6.509 53.311,6.537 C 52.667,6.853 52.014,7.195 51.424,7.604 C 50.759,8.065 50.096,8.525 49.468,9.037 C 49.088,9.348 48.708,9.655 48.336,9.975 C 46.931,11.182 45.587,12.489 44.301,13.822 L 44.301,13.865 L 44.344,13.865 C 46.161,11.982 48.149,10.119 50.272,8.586 C 50.789,8.213 51.31,7.874 51.843,7.525 C 52.395,7.161 52.976,6.814 53.566,6.498 C 55.736,7.554 57.807,8.807 59.732,10.227 C 59.32,10.504 58.919,10.792 58.515,11.081 C 57.292,11.953 56.101,12.903 54.933,13.845 C 53.36,15.115 51.797,16.394 50.213,17.649 C 50.188,17.669 50.183,17.708 50.203,17.732 C 50.223,17.757 50.261,17.762 50.286,17.742 C 51.521,16.763 52.757,15.784 53.979,14.791 C 54.645,14.248 55.326,13.715 56.007,13.189 C 56.386,12.896 56.763,12.597 57.15,12.312 C 57.564,12.006 57.975,11.692 58.398,11.396 C 58.898,11.046 59.401,10.699 59.906,10.356 C 60.393,10.72 60.871,11.094 61.338,11.478 C 58.336,13.564 55.708,16.278 53.181,18.851 L 53.182,18.913 L 53.245,18.912 C 54.287,17.83 55.369,16.767 56.457,15.732 C 58.022,14.242 59.686,12.815 61.486,11.601 C 61.659,11.744 61.83,11.889 62.001,12.036 C 62.448,12.423 62.893,12.819 63.33,13.224 C 61.734,14.014 60.395,15.22 59.102,16.444 C 58.547,16.968 57.99,17.494 57.445,18.027 C 57.103,18.361 56.733,18.676 56.377,18.995 C 56.027,19.309 55.637,19.601 55.266,19.891 L 55.26,19.94 L 55.309,19.946 C 55.681,19.657 56.053,19.368 56.412,19.062 C 56.681,18.832 56.946,18.59 57.21,18.352 C 59.238,16.52 61.03,14.554 63.479,13.364 C 63.883,13.742 64.279,14.127 64.666,14.52 C 63.927,15 63.216,15.547 62.547,16.11 C 62.038,16.538 61.536,16.974 61.053,17.432 C 60.692,17.776 60.323,18.113 59.973,18.467 C 59.497,18.948 59.023,19.427 58.554,19.909 L 58.455,19.591 L 58.451,19.578 C 58.37,19.207 57.847,19.285 57.876,19.658 L 57.879,19.695 L 57.89,19.741 L 57.94,20.008 L 57.98,20.166 L 57.879,20.202 C 57.833,20.235 57.797,20.28 57.777,20.338 C 57.744,20.432 57.728,20.529 57.706,20.626 C 57.688,20.698 57.672,20.771 57.657,20.843 C 57.611,20.893 57.566,20.94 57.522,20.987 C 57.386,20.747 57.083,20.65 56.83,20.77 C 56.797,20.785 56.766,20.804 56.738,20.825 L 56.692,20.867 L 56.643,20.776 C 56.544,20.597 56.317,20.532 56.138,20.631 C 55.959,20.73 55.894,20.957 55.993,21.136 C 56.167,21.444 56.337,21.756 56.504,22.068 C 56.488,22.087 56.471,22.106 56.455,22.124 L 56.456,22.159 L 56.491,22.158 C 56.503,22.143 56.516,22.128 56.529,22.115 C 56.75,22.526 56.968,22.941 57.186,23.356 C 57.165,23.46 57.144,23.564 57.124,23.667 C 56.947,24.561 56.741,25.435 56.439,26.296 C 56.425,26.335 56.411,26.374 56.397,26.413 C 55.992,26.935 55.524,27.451 55.056,27.916 C 54.754,28.217 54.449,28.514 54.125,28.791 C 53.891,28.992 53.654,29.211 53.407,29.393 C 53.293,29.477 53.184,29.569 53.073,29.656 C 52.81,29.859 52.51,30.079 52.23,30.257 C 51.993,30.41 51.744,30.565 51.513,30.723 C 51.3,30.868 51.044,31.009 50.817,31.135 C 50.313,31.415 49.811,31.683 49.288,31.928 C 48.553,32.273 47.833,32.554 47.071,32.839 C 46.435,33.076 45.762,33.264 45.109,33.452 C 44.948,33.499 44.781,33.531 44.619,33.575 C 44.547,33.593 44.475,33.611 44.404,33.629 C 44.129,33.608 43.856,33.58 43.587,33.55 C 43.482,33.539 43.387,33.616 43.376,33.722 C 43.371,33.767 43.383,33.812 43.407,33.847 C 43.166,33.895 42.926,33.94 42.685,33.987 C 42.317,34.057 41.949,34.109 41.578,34.16 C 41.359,34.19 41.14,34.227 40.92,34.246 C 40.616,34.274 40.31,34.32 40.005,34.343 C 39.171,34.405 38.337,34.457 37.5,34.458 C 37.243,34.458 36.988,34.466 36.732,34.457 C 36.478,34.448 36.22,34.452 35.966,34.439 C 35.29,34.405 34.606,34.368 33.933,34.296 C 33.6,34.26 33.258,34.224 32.926,34.177 C 32.699,34.146 32.473,34.107 32.247,34.074 C 31.657,33.884 31.07,33.681 30.497,33.466 C 29.876,33.232 29.253,33.004 28.641,32.744 C 27.564,32.285 26.511,31.828 25.47,31.29 C 24.515,30.796 23.607,30.278 22.708,29.687 C 22.303,29.422 21.892,29.131 21.516,28.825 L 21.044,28.415 L 20.45,27.422 C 20.136,26.863 19.854,26.269 19.604,25.662 L 19.066,24.146 L 19.027,23.846 C 18.991,23.633 18.94,23.426 18.901,23.215 C 18.886,23.135 18.853,23.047 18.831,22.968 C 18.772,22.762 18.698,22.564 18.609,22.369 C 18.604,22.36 18.6,22.351 18.596,22.341 C 18.866,22.073 19.141,21.808 19.407,21.538 C 19.556,21.386 19.713,21.241 19.862,21.09 C 19.992,20.958 20.12,20.82 20.25,20.687 C 20.396,20.538 20.552,20.412 20.529,20.179 C 20.503,19.916 20.281,19.742 20.02,19.779 L 19.955,19.787 C 19.801,19.848 19.507,20.084 19.369,20.197 C 19.227,20.314 19.071,20.427 18.935,20.551 L 18.629,20.836 C 18.724,20.619 18.826,20.398 18.911,20.18 C 18.96,20.053 19.028,19.954 18.973,19.818 C 18.91,19.662 18.684,19.595 18.557,19.711 C 18.45,19.81 18.349,19.984 18.263,20.106 L 18.185,20.216 L 18.151,20.185 C 18.019,20.106 17.845,20.15 17.766,20.282 C 17.258,21.131 16.794,21.992 16.329,22.865 L 16.302,22.913 L 16.057,23.285 C 15.889,23.557 15.723,23.831 15.562,24.107 C 15.393,24.396 15.239,24.694 15.091,24.994 C 15.029,25.12 14.901,25.366 14.875,25.494 C 14.827,25.739 15.094,25.892 15.275,25.781 L 15.331,25.746 C 15.354,25.817 15.419,25.885 15.485,25.911 C 15.707,25.998 15.798,25.829 15.92,25.689 C 15.999,25.596 16.078,25.499 16.155,25.4 C 16.215,25.371 16.267,25.324 16.302,25.262 C 16.49,24.916 16.688,24.595 16.901,24.291 L 17.052,24.153 C 17.26,23.969 17.448,23.737 17.629,23.525 C 17.698,23.443 17.765,23.358 17.829,23.269 C 17.848,23.786 17.896,24.302 17.97,24.813 C 18.12,25.843 18.417,26.865 18.823,27.821 C 19.324,28.999 20.093,30.185 20.963,31.125 C 21.217,31.4 21.478,31.686 21.759,31.936 C 22.184,32.315 22.613,32.683 23.073,33.02 C 23.413,33.27 23.77,33.5 24.128,33.725 C 24.882,34.2 25.714,34.616 26.534,34.966 C 26.729,35.049 26.931,35.125 27.128,35.205 C 27.546,35.375 27.994,35.528 28.426,35.659 C 28.588,35.708 28.749,35.764 28.911,35.811 C 29.728,36.053 30.591,36.246 31.43,36.396 C 31.953,36.49 32.477,36.552 33.003,36.624 C 33.608,36.707 34.243,36.739 34.867,36.754 C 36.103,36.855 37.354,36.856 38.598,36.766 C 39.501,36.782 40.405,36.744 41.303,36.668 C 41.82,36.623 42.327,36.544 42.84,36.473 C 43.178,36.427 43.544,36.354 43.877,36.278 C 44.37,36.166 44.891,36.065 45.366,35.886 C 45.469,35.848 45.579,35.813 45.683,35.778 C 45.802,35.737 45.929,35.682 46.046,35.633 C 46.384,35.495 46.724,35.357 47.049,35.191 C 47.43,34.996 47.811,34.803 48.186,34.594 C 48.187,34.593 48.189,34.592 48.19,34.591 C 48.378,34.529 48.547,34.442 48.71,34.355 C 49.19,34.096 49.667,33.845 50.132,33.56 C 50.307,33.453 50.495,33.35 50.661,33.232 C 50.818,33.12 50.99,33.016 51.151,32.91 C 51.603,32.61 52.078,32.277 52.502,31.94 L 52.633,31.828 L 53.525,31.207 C 54.422,30.53 55.241,29.75 55.96,28.884 L 56.206,28.56 L 56.205,28.562 L 56.214,28.549 L 56.208,28.557 C 57.028,27.702 57.788,26.753 58.448,25.793 C 58.457,25.778 58.468,25.762 58.479,25.746 C 58.647,26.036 58.824,26.323 59,26.606 C 59.096,26.761 59.219,27.011 59.374,27.098 C 59.619,27.235 59.908,27.108 59.981,26.839 C 59.986,26.821 59.997,26.803 59.998,26.783 C 60.009,26.557 59.835,25.994 59.756,25.766 C 59.724,25.674 59.691,25.583 59.659,25.493 C 59.813,25.344 59.968,25.196 60.45,24.795 C 60.497,24.857 60.572,24.969 60.651,25.075 L 60.686,25.112 L 60.728,25.267 C 60.745,25.337 60.768,25.405 60.78,25.476 C 60.8,25.6 60.839,25.725 60.857,25.848 C 60.87,25.943 60.884,26.041 60.897,26.138 C 60.467,26.65 60.066,27.194 59.687,27.74 C 59.671,27.765 59.676,27.801 59.701,27.817 C 59.726,27.834 59.761,27.828 59.778,27.804 C 60.138,27.283 60.515,26.779 60.922,26.295 C 60.93,26.333 60.965,26.362 61.006,26.362 C 61.053,26.362 61.092,26.324 61.092,26.276 C 61.098,26.205 61.108,26.135 61.118,26.065 C 61.192,25.981 61.266,25.897 61.342,25.814 C 62.073,25.008 62.852,24.272 63.674,23.561 C 64.489,22.855 65.349,22.215 66.215,21.577 C 66.964,21.024 67.743,20.507 68.514,19.984 C 68.868,20.607 69.207,21.242 69.528,21.887 C 69.175,22.074 68.831,22.281 68.498,22.503 C 68.181,22.713 67.873,22.929 67.558,23.141 C 67.42,23.235 67.286,23.341 67.151,23.442 C 66.674,23.799 66.216,24.168 65.764,24.557 C 63.778,26.258 61.96,28.289 60.452,30.423 L 60.458,30.461 L 60.495,30.455 C 60.931,29.832 61.411,29.228 61.893,28.64 C 62.651,27.717 63.474,26.838 64.336,26.012 C 64.464,25.889 64.597,25.774 64.725,25.653 C 65.029,25.368 65.355,25.076 65.678,24.813 C 66.028,24.528 66.375,24.251 66.733,23.975 C 67.216,23.601 67.732,23.252 68.243,22.918 C 68.625,22.668 69.026,22.446 69.417,22.21 C 69.486,22.168 69.556,22.125 69.626,22.083 C 69.89,22.621 70.142,23.167 70.379,23.717 C 70.257,23.793 70.136,23.87 70.015,23.949 C 68.324,25.042 66.915,26.445 65.53,27.892 C 64.973,28.474 64.428,29.068 63.885,29.663 C 63.526,30.055 63.158,30.438 62.802,30.832 C 62.428,31.247 62.024,31.642 61.635,32.045 L 61.635,32.093 L 61.683,32.093 C 62.139,31.623 62.597,31.159 63.045,30.68 C 63.81,29.863 64.569,29.024 65.356,28.228 C 65.763,27.816 66.159,27.401 66.574,26.997 C 67.745,25.856 69.047,24.757 70.457,23.899 C 70.784,24.669 71.082,25.451 71.349,26.239 C 71.262,26.284 71.175,26.331 71.088,26.38 C 70.854,26.509 70.63,26.655 70.406,26.801 C 69.901,27.132 69.401,27.474 68.921,27.842 C 68.572,28.11 68.235,28.382 67.894,28.659 C 67.149,29.263 66.426,29.923 65.735,30.587 C 64.791,31.494 63.854,32.414 62.953,33.364 C 62.932,33.386 62.932,33.421 62.954,33.442 C 62.976,33.463 63.011,33.463 63.032,33.441 C 63.787,32.653 64.566,31.856 65.366,31.114 C 65.863,30.653 66.35,30.177 66.868,29.739 C 67.467,29.232 68.062,28.711 68.697,28.25 C 68.826,28.157 68.949,28.054 69.08,27.965 C 69.476,27.69 69.871,27.398 70.28,27.144 C 70.657,26.909 71.038,26.677 71.42,26.45 C 71.682,27.242 71.932,28.041 72.137,28.85 C 71.907,29 71.682,29.157 71.463,29.328 C 70.993,29.694 70.529,30.093 70.081,30.489 C 69.66,30.86 69.236,31.228 68.814,31.601 C 68.335,32.024 67.86,32.453 67.373,32.867 C 66.845,33.316 66.317,33.753 65.783,34.195 C 65.377,34.531 64.936,34.844 64.51,35.155 C 64.062,35.482 63.555,35.82 63.076,36.099 C 62.847,36.231 62.613,36.356 62.387,36.492 L 62.377,36.527 L 62.413,36.537 C 62.657,36.391 62.91,36.259 63.153,36.112 C 63.585,35.852 64.01,35.574 64.427,35.288 C 65.317,34.676 66.172,33.997 67.005,33.312 C 67.547,32.866 68.088,32.417 68.618,31.957 C 69.31,31.358 70.022,30.764 70.733,30.187 C 71.03,29.947 71.337,29.715 71.628,29.47 C 71.811,29.315 71.993,29.158 72.175,29 C 72.177,29.006 72.178,29.012 72.18,29.018 C 72.293,29.478 72.401,29.937 72.497,30.401 C 72.514,30.484 72.532,30.568 72.55,30.652 C 72.264,30.855 71.979,31.06 71.696,31.267 C 70.293,32.291 68.922,33.375 67.561,34.456 C 65.647,35.977 63.769,37.542 61.923,39.144 C 61.903,39.162 61.9,39.194 61.918,39.214 C 61.936,39.234 61.968,39.237 61.988,39.219 C 63.464,37.938 64.968,36.686 66.501,35.472 C 67.354,34.796 68.22,34.138 69.084,33.474 C 69.895,32.851 70.724,32.25 71.549,31.645 C 71.899,31.388 72.249,31.13 72.598,30.869 C 72.61,30.935 72.623,31 72.635,31.065 C 72.725,31.58 72.809,32.091 72.886,32.608 C 72.919,32.827 72.953,33.051 72.977,33.27 C 72.981,33.312 72.986,33.353 72.99,33.395 C 72.377,33.737 71.781,34.105 71.186,34.491 C 70.633,34.85 70.082,35.219 69.547,35.606 C 68.803,36.142 68.076,36.685 67.358,37.257 C 66.032,38.313 64.773,39.454 63.56,40.637 L 63.559,40.689 L 63.611,40.69 C 64.942,39.402 66.3,38.209 67.769,37.079 C 69.424,35.807 71.184,34.673 72.991,33.631 C 72.998,33.626 73.005,33.621 73.013,33.617 C 73.077,34.205 73.138,34.804 73.164,35.39 C 73.176,35.707 73.195,36.025 73.205,36.342 C 73.215,36.657 73.211,36.975 73.216,37.291 C 73.225,37.811 73.197,38.343 73.176,38.864 C 73.132,39.985 73.018,41.104 72.848,42.212 C 72.841,42.258 72.834,42.304 72.827,42.35 C 72.791,42.329 72.745,42.33 72.71,42.356 C 72.273,42.668 71.84,42.989 71.401,43.3 C 70.202,44.153 69,45.006 67.823,45.889 C 66.837,46.63 65.871,47.375 64.925,48.165 C 64.462,48.552 63.992,48.955 63.556,49.372 L 63.552,49.436 L 63.615,49.439 C 64.387,48.704 65.243,48.008 66.088,47.358 C 66.877,46.751 67.676,46.157 68.494,45.589 C 68.887,45.316 69.276,45.038 69.672,44.767 C 70.066,44.497 70.464,44.229 70.851,43.95 C 71.498,43.484 72.146,43.017 72.795,42.554 C 72.739,42.92 72.68,43.284 72.607,43.647 C 72.477,44.293 72.328,44.93 72.177,45.572 C 72.02,46.239 71.804,46.912 71.605,47.568 C 71.441,48.108 71.239,48.656 71.041,49.186 C 70.963,49.391 70.884,49.596 70.803,49.799 C 70.775,49.742 70.706,49.718 70.648,49.745 C 69.303,50.409 68.226,51.539 67.084,52.491 C 66.769,52.754 66.431,53.032 66.089,53.258 C 65.782,53.458 65.497,53.609 65.174,53.771 C 65.068,53.825 64.902,53.88 64.787,53.911 C 64.733,53.926 64.661,53.939 64.612,53.959 C 64.59,53.965 64.576,53.989 64.582,54.01 C 64.588,54.032 64.612,54.046 64.633,54.04 C 64.697,54.014 64.779,54.007 64.843,53.983 C 65.057,53.9 65.256,53.839 65.463,53.728 C 66.336,53.259 67.064,52.667 67.819,52.032 C 68.548,51.419 69.308,50.757 70.132,50.274 C 70.328,50.158 70.526,50.044 70.738,49.959 C 70.531,50.473 70.313,50.981 70.088,51.492 C 69.905,51.91 69.689,52.327 69.487,52.736 C 69.364,52.981 69.239,53.227 69.109,53.471 C 68.523,53.871 67.959,54.304 67.407,54.752 C 66.666,55.353 65.932,55.969 65.176,56.55 L 64.559,57.009 L 64.946,56.235 L 64.932,56.195 L 64.892,56.209 C 64.772,56.436 64.641,56.685 64.535,56.919 L 64.513,56.963 C 64.492,57.006 64.456,57.065 64.444,57.109 L 64.471,57.141 C 64.517,57.132 64.85,56.874 64.917,56.826 C 65.293,56.553 65.67,56.267 66.032,55.976 C 66.373,55.702 66.721,55.436 67.066,55.166 C 67.488,54.835 67.915,54.504 68.355,54.195 C 68.548,54.058 68.743,53.921 68.94,53.788 C 68.595,54.423 68.227,55.049 67.846,55.655 C 67.358,56.429 66.854,57.185 66.315,57.923 C 65.964,58.401 65.604,58.87 65.232,59.331 C 65.124,59.372 65.017,59.413 64.91,59.457 L 64.894,59.491 L 64.928,59.507 C 65.003,59.475 65.081,59.449 65.159,59.423 C 63.312,61.7 61.211,63.754 58.904,65.572 C 58.045,66.248 57.141,66.902 56.228,67.502 C 55.747,67.818 55.258,68.115 54.768,68.417 C 54.417,68.632 54.055,68.848 53.685,69.037 C 53.043,69.351 52.387,69.667 51.728,69.939 C 51.575,70.003 51.422,70.064 51.268,70.125 L 51.246,70.13 L 51.188,70.143 C 51.038,70.17 50.879,70.192 50.73,70.227 L 50.708,70.257 L 50.738,70.28 L 51.141,70.172 L 51.171,70.165 C 50.927,70.261 50.683,70.356 50.439,70.451 C 50.126,70.572 49.809,70.688 49.49,70.8 C 49.437,70.754 49.361,70.74 49.295,70.769 C 48.809,70.985 48.319,71.169 47.839,71.325 C 46.926,71.588 46.013,71.809 45.103,71.99 C 44.285,72.134 43.456,72.244 42.613,72.345 C 41.669,72.456 40.68,72.519 39.729,72.554 C 38.786,72.589 37.847,72.609 36.91,72.601 C 35.528,72.523 34.147,72.39 32.789,72.147 C 31.162,71.855 29.547,71.476 27.976,70.961 C 27.99,70.951 28.003,70.941 28.017,70.932 C 28.179,70.814 28.331,70.683 28.485,70.556 C 28.619,70.445 28.753,70.316 28.881,70.197 C 29.557,69.571 30.237,68.893 31.131,68.601 C 31.271,68.555 31.452,68.498 31.599,68.487 C 31.662,68.476 31.704,68.416 31.694,68.353 C 31.683,68.29 31.622,68.247 31.559,68.258 C 31.505,68.258 31.381,68.289 31.324,68.303 C 30.903,68.41 30.568,68.561 30.202,68.792 C 29.76,69.071 29.4,69.429 29.019,69.783 C 28.82,69.97 28.612,70.156 28.417,70.346 C 28.227,70.53 27.972,70.726 27.74,70.882 C 27.17,70.692 26.597,70.492 26.039,70.274 C 25.748,70.161 25.459,70.036 25.168,69.921 C 24.685,69.729 24.206,69.5 23.733,69.281 C 23.032,68.956 22.329,68.602 21.646,68.224 C 21.951,67.925 22.263,67.629 22.57,67.33 C 23.033,66.88 23.53,66.428 24.061,66.059 C 24.482,65.768 25.019,65.448 25.519,65.324 C 25.553,65.316 25.575,65.281 25.567,65.246 C 25.559,65.212 25.523,65.19 25.489,65.198 C 25.386,65.221 25.277,65.23 25.175,65.257 C 24.972,65.31 24.814,65.385 24.622,65.456 C 24.55,65.483 24.47,65.535 24.401,65.571 C 24.049,65.757 23.621,66.077 23.326,66.345 C 22.687,66.92 22.072,67.519 21.463,68.123 C 21.287,68.024 21.112,67.923 20.94,67.822 C 20.22,67.399 19.508,66.97 18.816,66.505 C 18.949,66.385 19.081,66.263 19.212,66.14 C 19.665,65.714 20.122,65.257 20.629,64.896 C 20.761,64.803 20.909,64.692 21.053,64.618 C 21.227,64.529 21.383,64.438 21.567,64.366 C 21.697,64.316 21.838,64.282 21.965,64.233 C 22.122,64.171 22.372,64.111 22.54,64.083 C 22.52,64.051 22.318,64.052 22.273,64.053 C 21.866,64.067 21.655,64.162 21.279,64.328 C 21.2,64.363 21.13,64.413 21.054,64.452 C 20.964,64.498 20.881,64.56 20.796,64.616 C 20.443,64.848 20.151,65.12 19.839,65.404 C 19.468,65.743 19.114,66.123 18.737,66.451 C 18.664,66.402 18.592,66.351 18.52,66.302 C 17.909,65.878 17.29,65.449 16.708,64.986 C 16.56,64.869 16.413,64.752 16.264,64.636 C 16.535,64.325 16.803,64.03 17.082,63.729 C 17.221,63.579 17.415,63.39 17.576,63.266 C 17.62,63.226 17.623,63.156 17.582,63.112 C 17.542,63.069 17.472,63.066 17.428,63.106 C 17.044,63.458 16.707,63.827 16.373,64.226 C 16.29,64.323 16.208,64.424 16.125,64.524 C 15.815,64.278 15.508,64.03 15.208,63.772 C 15.005,63.596 14.804,63.416 14.601,63.24 C 14.443,63.102 14.286,62.962 14.131,62.82 C 14.159,62.794 14.187,62.771 14.215,62.747 C 14.773,62.248 15.27,61.712 15.804,61.191 C 15.847,61.147 15.846,61.075 15.803,61.032 C 15.76,60.988 15.687,60.989 15.644,61.033 C 15.086,61.565 14.594,62.2 13.999,62.697 C 13.721,62.437 13.446,62.17 13.177,61.906 C 12.16,60.906 11.201,59.857 10.296,58.756 C 10.161,58.593 10.029,58.429 9.897,58.264 C 9.945,58.21 9.993,58.156 10.039,58.107 C 10.395,57.71 10.756,57.337 11.146,56.97 C 11.648,56.498 12.411,55.896 13.088,55.727 C 13.142,55.71 13.171,55.651 13.155,55.598 C 13.138,55.544 13.079,55.515 13.025,55.532 C 12.466,55.682 11.899,56.097 11.459,56.463 C 11.079,56.78 10.725,57.139 10.385,57.498 C 10.189,57.703 9.987,57.919 9.799,58.139 C 9.332,57.548 8.879,56.943 8.444,56.328 C 8.454,56.317 8.464,56.307 8.475,56.297 C 8.659,56.11 8.857,55.933 9.044,55.747 C 9.458,55.336 9.878,54.905 10.329,54.537 C 10.461,54.429 10.607,54.324 10.744,54.223 C 10.785,54.191 10.793,54.13 10.761,54.089 C 10.729,54.049 10.668,54.041 10.628,54.073 C 9.919,54.59 9.279,55.281 8.667,55.908 C 8.571,56.006 8.467,56.108 8.361,56.21 C 8.21,55.996 8.063,55.781 7.918,55.565 C 7.637,55.149 7.37,54.726 7.108,54.301 C 7.276,54.141 7.445,53.981 7.617,53.826 C 8.284,53.219 8.952,52.592 9.827,52.31 C 9.875,52.294 9.902,52.24 9.886,52.192 C 9.87,52.143 9.816,52.117 9.767,52.132 C 8.934,52.387 8.223,53.052 7.593,53.631 C 7.402,53.805 7.216,53.988 7.029,54.172 C 6.84,53.862 6.654,53.55 6.47,53.237 C 6.145,52.684 5.821,52.107 5.531,51.534 C 5.472,51.416 5.413,51.3 5.355,51.182 C 5.62,50.859 5.848,50.51 6.103,50.179 C 6.187,50.07 6.267,49.953 6.357,49.848 C 6.498,49.684 6.637,49.535 6.793,49.385 C 6.999,49.187 7.218,49.054 7.458,48.904 C 7.544,48.851 7.673,48.803 7.767,48.757 C 7.817,48.733 7.838,48.671 7.814,48.621 C 7.791,48.57 7.728,48.549 7.678,48.573 C 7.03,48.851 6.51,49.331 6.093,49.89 C 5.865,50.195 5.653,50.516 5.42,50.819 C 5.369,50.883 5.322,50.95 5.273,51.015 C 4.869,50.2 4.489,49.385 4.126,48.545 C 4.113,48.516 4.1,48.487 4.087,48.458 C 4.178,48.405 4.267,48.352 4.356,48.289 C 4.616,48.102 4.913,47.813 5.106,47.559 C 5.24,47.381 5.376,47.207 5.507,47.026 C 5.826,46.584 6.16,46.107 6.603,45.78 C 6.646,45.744 6.651,45.678 6.615,45.635 C 6.579,45.593 6.513,45.588 6.471,45.623 C 6.092,45.935 5.759,46.36 5.493,46.77 C 5.293,47.079 5.055,47.427 4.809,47.699 C 4.665,47.859 4.451,48.08 4.271,48.195 C 4.206,48.236 4.143,48.286 4.078,48.326 C 4.065,48.333 4.054,48.341 4.041,48.348 C 3.869,47.937 3.715,47.52 3.589,47.094 C 3.784,47.949 3.709,47.704 3.371,46.302 L 3.291,45.552 L 3.291,45.553 C 3.405,45.454 3.52,45.356 3.636,45.258 C 4.202,44.776 4.764,44.237 5.281,43.702 C 5.322,43.66 5.321,43.589 5.278,43.549 C 5.236,43.508 5.166,43.509 5.125,43.552 C 4.988,43.688 4.861,43.836 4.726,43.976 C 4.45,44.264 4.16,44.548 3.869,44.821 C 3.671,45.005 3.472,45.185 3.271,45.363 L 3.044,43.219 C 3.031,42.765 3.034,42.311 3.052,41.856 C 3.104,41.801 3.157,41.746 3.209,41.692 C 3.484,41.398 3.752,41.103 4.046,40.829 C 4.178,40.706 4.32,40.601 4.46,40.487 C 4.686,40.301 4.992,40.146 5.252,40.014 C 5.302,39.988 5.322,39.925 5.295,39.874 C 5.269,39.824 5.205,39.804 5.155,39.831 C 4.257,40.266 3.7,40.951 3.061,41.648 C 3.092,41.012 3.153,40.372 3.244,39.727 L 3.221,39.697 L 3.191,39.721 C 3.128,40.055 3.088,40.447 3.06,40.787 C 3.033,41.101 3.012,41.41 2.999,41.716 C 2.911,41.811 2.822,41.906 2.743,41.986 C 2.706,41.361 2.764,40.667 2.854,39.973 C 3.034,39.781 3.225,39.599 3.414,39.468 C 3.601,39.339 3.87,39.192 4.093,39.147 C 4.179,39.13 4.256,39.113 4.344,39.103 C 4.392,39.097 4.483,39.1 4.524,39.083 C 4.556,39.069 4.58,39.05 4.611,39.033 C 4.579,39.015 4.553,38.995 4.518,38.982 C 4.384,38.934 3.905,39.072 3.78,39.125 C 3.718,39.152 3.659,39.188 3.599,39.215 C 3.342,39.332 3.094,39.558 2.879,39.789 C 2.881,39.775 2.883,39.762 2.885,39.748 L 2.861,39.718 L 2.832,39.742 C 2.824,39.782 2.817,39.823 2.81,39.864 C 2.732,39.95 2.66,40.036 2.593,40.115 C 2.512,40.211 2.431,40.309 2.35,40.406 C 2.342,40.291 2.333,40.176 2.324,40.063 C 2.306,39.851 2.294,39.638 2.304,39.423 C 2.236,38.997 2.237,38.299 2.259,37.617 C 2.259,37.509 2.26,37.403 2.262,37.297 C 2.268,37.293 2.273,37.289 2.278,37.283 C 2.3,37.246 2.324,37.212 2.349,37.177 C 2.365,37.535 2.393,37.889 2.436,38.24 C 2.447,38.34 2.538,38.413 2.638,38.402 C 2.735,38.391 2.806,38.305 2.795,38.206 C 2.796,38.231 2.796,38.232 2.797,38.233 C 2.808,38.333 2.899,38.406 2.999,38.395 C 3.098,38.384 3.171,38.294 3.161,38.194 C 3.122,37.98 3.112,37.736 3.094,37.519 C 3.063,37.135 3.053,36.724 3.063,36.335 C 3.248,36.149 3.446,35.973 3.637,35.824 C 3.768,35.72 3.905,35.605 4.046,35.516 C 4.066,35.501 4.071,35.47 4.056,35.45 C 4.042,35.429 4.011,35.424 3.99,35.439 C 3.688,35.637 3.367,35.903 3.068,36.195 C 3.093,35.484 3.139,34.776 3.227,34.07 C 3.408,33.916 3.593,33.678 3.744,33.513 C 3.949,33.289 4.152,33.016 4.393,32.831 C 4.521,32.733 4.709,32.592 4.863,32.543 C 4.978,32.507 5.103,32.449 5.208,32.391 L 5.229,32.361 L 5.198,32.34 C 4.91,32.299 4.646,32.465 4.423,32.628 C 4.357,32.677 4.294,32.745 4.231,32.79 C 4.162,32.841 4.084,32.939 4.026,33.003 C 3.87,33.173 3.729,33.351 3.577,33.525 C 3.473,33.644 3.365,33.774 3.25,33.891 C 3.338,33.232 3.445,32.594 3.568,31.94 C 3.664,31.416 3.774,30.893 3.893,30.371 C 4.176,29.904 4.446,29.429 4.86,29.061 C 5.147,28.805 5.341,28.746 5.685,28.631 C 5.772,28.603 5.858,28.545 5.944,28.513 C 5.861,28.497 5.762,28.475 5.677,28.486 C 5.396,28.521 5.028,28.726 4.825,28.919 C 4.777,28.965 4.726,29.018 4.676,29.062 C 4.619,29.112 4.563,29.188 4.513,29.247 C 4.294,29.502 4.125,29.82 3.952,30.117 C 4.28,28.717 4.68,27.328 5.126,25.971 C 5.236,25.636 5.348,25.301 5.463,24.967 C 6.041,24.153 6.573,23.294 7.468,22.798 C 7.502,22.775 7.513,22.727 7.49,22.692 C 7.468,22.658 7.419,22.647 7.385,22.67 C 6.872,22.982 6.456,23.408 6.101,23.889 C 5.919,24.136 5.747,24.395 5.573,24.653 C 5.823,23.946 6.089,23.244 6.386,22.561 C 6.776,21.659 7.182,20.758 7.651,19.895 C 7.71,19.787 7.768,19.679 7.827,19.573 C 8.324,18.814 8.815,18.058 9.37,17.338 C 9.833,16.729 10.294,16.128 10.782,15.538 C 11.569,14.585 12.418,13.681 13.286,12.802 C 13.732,12.351 14.211,11.91 14.685,11.487 C 16.725,9.669 18.889,8.127 21.288,6.806 C 23.478,5.6 25.836,4.647 28.244,3.968 C 27.716,4.395 27.219,4.867 26.685,5.288 C 26.471,5.457 26.251,5.642 26.021,5.789 C 25.771,5.95 25.529,6.13 25.256,6.25 C 25.195,6.276 25.143,6.313 25.078,6.337 C 24.98,6.372 24.882,6.424 24.784,6.454 C 24.674,6.488 24.568,6.517 24.458,6.548 L 24.432,6.591 L 24.475,6.617 C 24.59,6.586 24.699,6.556 24.812,6.52 C 24.914,6.488 25.015,6.432 25.115,6.4 C 25.197,6.373 25.296,6.312 25.374,6.271 C 25.602,6.153 25.8,6.03 26.014,5.89 C 26.447,5.609 26.901,5.251 27.293,4.914 C 27.55,4.694 27.818,4.464 28.086,4.257 C 28.248,4.131 28.407,4.004 28.565,3.879 C 28.625,3.863 28.685,3.847 28.745,3.831 C 29.749,3.564 30.766,3.343 31.792,3.171 C 31.649,3.259 31.507,3.348 31.366,3.438 C 29.671,4.498 28.187,5.707 26.808,7.147 L 26.809,7.205 L 26.867,7.204 C 28.407,5.548 30.204,4.259 32.128,3.115 C 32.551,3.048 32.975,2.99 33.401,2.939 C 33.717,2.901 34.033,2.87 34.35,2.844 C 33.756,3.234 33.166,3.648 32.597,4.068 C 31.729,4.711 30.882,5.357 30.067,6.063 C 29.665,6.412 29.26,6.77 28.887,7.15 L 28.886,7.2 L 28.936,7.201 C 29.38,6.75 29.857,6.347 30.333,5.934 C 31.013,5.344 31.768,4.781 32.499,4.258 C 33.16,3.786 33.829,3.316 34.517,2.882 C 34.547,2.862 34.579,2.842 34.61,2.822 C 34.862,2.802 35.114,2.783 35.366,2.766 C 35.884,2.727 36.403,2.723 36.921,2.709 C 36.96,2.707 36.998,2.706 37.038,2.706 C 36.932,2.775 36.828,2.848 36.727,2.918 C 36.231,3.255 35.746,3.6 35.254,3.942 C 34.709,4.321 34.172,4.738 33.651,5.151 C 32.92,5.73 32.249,6.314 31.564,6.946 C 31.245,7.24 30.945,7.56 30.644,7.872 C 30.621,7.896 30.621,7.938 30.645,7.962 C 30.67,7.985 30.712,7.985 30.735,7.961 C 31.964,6.684 33.285,5.556 34.735,4.534 C 35.239,4.178 35.741,3.818 36.255,3.478 C 36.636,3.226 37.041,2.972 37.415,2.7 C 37.886,2.698 38.362,2.708 38.836,2.729 Z M 29.685,3.25 C 29.558,3.277 29.43,3.306 29.304,3.336 C 29.321,3.325 29.338,3.314 29.355,3.303 C 29.756,3.205 30.158,3.115 30.564,3.032 C 30.618,3.029 30.671,3.026 30.725,3.023 C 30.378,3.094 30.03,3.174 29.685,3.25 Z M 28.92,3.429 C 28.146,3.623 27.374,3.852 26.625,4.105 C 26.374,4.189 26.125,4.275 25.885,4.388 C 26.139,4.251 26.403,4.16 26.667,4.073 C 27.429,3.821 28.191,3.598 28.958,3.402 C 28.945,3.411 28.933,3.419 28.92,3.429 Z M 51.19,3.838 C 51.286,3.878 51.381,3.917 51.497,3.967 C 51.107,3.807 50.741,3.66 50.287,3.486 C 50.646,3.62 50.918,3.726 51.19,3.838 Z M 50.241,3.865 C 50.369,3.913 50.497,3.964 50.625,4.013 C 50.396,3.938 50.166,3.865 49.414,3.66 C 49.42,3.656 49.426,3.652 49.431,3.648 C 49.455,3.629 49.48,3.611 49.505,3.593 C 49.751,3.677 50.001,3.772 50.241,3.865 Z M 48.774,3.831 C 48.69,3.809 48.611,3.788 48.539,3.769 C 48.616,3.789 48.694,3.811 48.774,3.831 Z M 25.334,3.913 C 25.344,3.907 25.353,3.904 25.363,3.901 C 25.396,3.887 25.43,3.874 25.464,3.86 C 25.383,3.884 25.303,3.908 25.334,3.913 Z M 49.304,3.977 C 49.665,4.076 50.048,4.186 50.401,4.31 C 50.942,4.466 51.496,4.684 52.024,4.883 C 52.137,4.926 52.251,4.97 52.356,5.027 C 52.248,4.974 52.134,4.931 52.022,4.887 C 51.043,4.513 50.041,4.188 49.065,3.913 C 49.066,3.912 49.067,3.911 49.068,3.911 C 49.145,3.932 49.224,3.954 49.304,3.977 Z M 23.59,4.693 C 23.685,4.603 24.125,4.41 24.603,4.24 C 24.641,4.225 24.681,4.212 24.722,4.201 C 24.326,4.35 23.945,4.506 23.59,4.693 Z M 48.974,4.259 C 49.126,4.301 49.281,4.344 49.434,4.388 C 50.146,4.636 50.845,4.903 51.53,5.188 C 51.514,5.195 51.498,5.202 51.482,5.208 C 50.597,4.838 49.696,4.505 48.783,4.207 C 48.846,4.224 48.91,4.241 48.974,4.259 Z M 22.137,4.958 C 21.921,5.064 21.701,5.173 21.49,5.29 C 21.196,5.454 20.896,5.61 20.604,5.776 C 19.963,6.141 19.329,6.524 18.709,6.924 C 17.641,7.614 16.592,8.377 15.595,9.19 C 15.893,8.932 16.204,8.673 16.521,8.414 C 17.18,7.874 17.873,7.382 18.573,6.898 C 18.705,6.806 18.844,6.725 18.976,6.634 C 19.441,6.315 19.957,6.01 20.451,5.735 C 21.184,5.328 21.911,4.953 22.675,4.608 C 22.925,4.494 23.177,4.387 23.446,4.326 C 23.005,4.531 22.573,4.741 22.137,4.958 Z M 19.847,6.645 C 19.283,6.989 18.741,7.35 18.191,7.715 C 17.937,7.882 17.688,8.058 17.449,8.25 C 17.627,8.087 17.824,7.947 18.025,7.808 C 18.596,7.411 19.182,7.046 19.77,6.674 C 19.958,6.556 20.154,6.448 20.345,6.336 C 20.994,5.952 21.651,5.604 22.322,5.261 C 22.356,5.242 22.392,5.224 22.67,5.105 C 21.708,5.579 20.763,6.088 19.847,6.645 Z M 53.576,6.172 C 52.944,5.854 52.303,5.556 51.652,5.281 C 51.658,5.269 51.66,5.255 51.659,5.242 C 52.319,5.519 52.967,5.813 53.576,6.172 Z M 22.02,6.051 C 22.347,5.86 22.836,5.626 23.335,5.413 C 22.796,5.62 22.394,5.814 22.02,6.051 Z M 55.156,5.792 C 55.02,5.692 54.872,5.609 54.707,5.53 C 54.979,5.656 55.237,5.804 55.156,5.792 Z M 54.686,6.042 C 54.758,6.08 54.831,6.116 54.906,6.151 C 54.752,6.063 54.593,5.986 54.392,5.904 C 54.494,5.944 54.591,5.992 54.686,6.042 Z M 56.723,7.863 C 56.081,7.455 55.387,7.066 54.68,6.704 C 55.663,7.184 56.212,7.496 56.723,7.863 Z M 19.01,7.736 C 19.087,7.686 19.165,7.635 19.245,7.584 C 19.156,7.64 19.068,7.697 19.01,7.736 Z M 18.903,7.813 C 18.927,7.791 18.953,7.773 18.981,7.756 C 18.99,7.749 19,7.743 19.01,7.736 C 18.955,7.772 18.92,7.798 18.903,7.813 Z M 54.864,8.323 C 54.715,8.398 54.57,8.488 54.426,8.572 C 54.159,8.727 53.898,8.881 53.638,9.05 C 53.321,9.257 53.008,9.466 52.701,9.687 C 52.062,10.147 51.462,10.652 50.862,11.158 C 49.629,12.197 48.48,13.357 47.314,14.469 C 46.858,14.903 46.403,15.338 45.946,15.772 C 45.695,16.01 45.43,16.237 45.182,16.478 L 45.179,16.54 L 45.241,16.543 C 45.623,16.173 46.03,15.815 46.42,15.451 C 46.887,15.016 47.342,14.567 47.809,14.134 C 48.356,13.627 48.886,13.101 49.44,12.604 C 50.078,12.03 50.716,11.469 51.379,10.925 C 52.522,9.987 53.777,9.134 55.074,8.424 C 55.254,8.325 55.427,8.21 55.607,8.113 C 55.634,8.1 55.645,8.067 55.632,8.041 C 55.619,8.014 55.587,8.003 55.56,8.016 C 55.322,8.113 55.093,8.207 54.864,8.323 Z M 59.8,9.883 C 59.139,9.4 58.463,8.937 57.765,8.512 C 58.785,9.116 59.308,9.48 59.8,9.883 Z M 55.584,10.289 C 55.28,10.538 54.971,10.778 54.668,11.026 C 54.205,11.404 53.724,11.763 53.256,12.137 C 52.496,12.746 51.71,13.379 50.997,14.045 C 50.716,14.308 50.418,14.573 50.155,14.853 C 49.741,15.291 49.349,15.728 48.972,16.198 C 48.534,16.743 48.159,17.35 47.822,17.961 C 47.805,17.991 47.816,18.032 47.847,18.049 C 47.878,18.065 47.918,18.054 47.935,18.024 C 48.304,17.353 48.694,16.765 49.169,16.165 C 49.33,15.961 49.508,15.774 49.674,15.574 C 49.786,15.44 49.91,15.319 50.03,15.192 C 50.139,15.076 50.25,14.951 50.366,14.843 C 50.564,14.658 50.754,14.468 50.954,14.286 C 51.277,13.99 51.612,13.704 51.946,13.422 C 52.795,12.71 53.692,12.046 54.535,11.327 C 54.832,11.073 55.137,10.819 55.422,10.553 C 55.518,10.463 55.621,10.381 55.714,10.288 C 55.882,10.121 56.061,9.965 56.228,9.798 C 56.41,9.616 56.587,9.432 56.769,9.25 C 56.376,9.598 55.991,9.955 55.584,10.289 Z M 15.017,10.708 C 15.029,10.697 15.039,10.687 15.051,10.678 C 15.463,10.322 15.885,9.978 16.338,9.626 C 15.874,9.991 15.444,10.345 15.017,10.708 Z M 60.014,10.04 L 60.013,10.041 C 59.954,9.998 59.896,9.955 59.837,9.913 C 59.897,9.955 59.956,9.999 60.014,10.04 Z M 61.635,11.276 C 61.63,11.279 61.625,11.282 61.621,11.286 C 61.149,10.901 60.667,10.527 60.183,10.167 L 60.186,10.166 C 60.753,10.58 61.222,10.94 61.635,11.276 Z M 62.893,12.368 C 62.915,12.391 62.933,12.412 62.952,12.432 C 62.572,12.085 62.177,11.744 61.772,11.41 C 61.777,11.406 61.783,11.403 61.787,11.399 C 62.193,11.734 62.547,12.046 62.893,12.368 Z M 12.324,13.281 C 12.279,13.325 12.237,13.368 12.194,13.412 C 12.236,13.365 12.278,13.318 12.321,13.272 C 12.347,13.246 12.372,13.219 12.324,13.281 Z M 11.567,14.14 C 11.401,14.338 11.238,14.537 11.096,14.751 C 11.354,14.327 11.757,13.862 12.194,13.412 C 11.985,13.646 11.773,13.891 11.567,14.14 Z M 65.309,15.188 C 65.461,15.384 65.61,15.579 65.76,15.776 C 65.905,15.966 66.041,16.164 66.185,16.355 C 66.27,16.477 66.355,16.598 66.44,16.721 C 66.381,16.746 66.324,16.771 66.267,16.798 C 65.429,17.193 64.616,17.689 63.856,18.219 C 63.685,18.339 63.517,18.467 63.347,18.589 C 63.004,18.835 62.657,19.116 62.334,19.39 C 61.783,19.858 61.238,20.327 60.716,20.827 C 60.546,20.989 60.377,21.152 60.208,21.315 C 60.148,21.203 60.086,21.091 60.026,20.98 C 59.957,20.853 59.888,20.725 59.822,20.596 C 59.815,20.348 59.789,20.104 59.748,19.876 C 59.703,19.635 59.388,19.54 59.221,19.723 C 59.21,19.734 59.201,19.746 59.192,19.759 C 59.089,19.77 58.989,19.835 58.944,19.942 L 58.949,20.189 L 58.95,20.219 C 58.976,20.321 59.015,20.422 59.034,20.501 C 59.051,20.571 59.074,20.644 59.099,20.718 C 59.081,20.868 59.057,21.018 59.029,21.167 C 58.915,20.892 58.795,20.617 58.69,20.34 L 58.581,19.995 L 58.573,19.969 C 59.141,19.391 59.72,18.823 60.305,18.26 C 61.032,17.559 61.819,16.844 62.613,16.222 C 62.904,15.995 63.188,15.757 63.488,15.54 C 63.917,15.229 64.347,14.93 64.793,14.649 C 64.967,14.827 65.139,15.007 65.309,15.188 Z M 67.582,18.426 C 67.615,18.479 67.648,18.533 67.682,18.586 C 66.702,19.3 65.75,20.042 64.819,20.821 C 63.968,21.533 63.134,22.262 62.361,23.056 C 61.989,23.368 61.625,23.688 61.266,24.013 C 61.223,23.763 61.177,23.507 61.095,23.269 C 61.024,23.063 60.957,22.855 60.871,22.655 C 60.683,22.218 60.465,21.794 60.24,21.376 C 60.36,21.26 60.482,21.147 60.606,21.037 C 60.937,20.739 61.26,20.437 61.596,20.146 C 62.276,19.555 62.988,19.002 63.726,18.485 C 64.168,18.176 64.629,17.894 65.094,17.62 C 65.469,17.399 65.863,17.219 66.248,17.016 C 66.344,16.965 66.441,16.914 66.539,16.863 C 66.896,17.378 67.249,17.895 67.582,18.426 Z M 57.203,18.503 C 57.386,18.89 57.46,19.218 57.495,19.641 C 57.507,19.774 57.49,19.923 57.485,20.058 C 57.481,20.149 57.552,20.229 57.642,20.233 C 57.733,20.237 57.813,20.167 57.817,20.076 C 57.832,19.606 57.825,19.241 57.674,18.788 C 57.626,18.642 57.563,18.512 57.507,18.371 C 57.472,18.287 57.373,18.249 57.289,18.285 C 57.205,18.32 57.167,18.419 57.203,18.503 Z M 68.402,19.788 C 68.319,19.844 68.237,19.901 68.155,19.957 C 67.542,20.376 66.921,20.809 66.328,21.255 C 65.926,21.558 65.522,21.858 65.125,22.169 C 64.432,22.713 63.772,23.282 63.112,23.866 C 62.474,24.431 61.872,25.061 61.296,25.688 C 61.245,25.741 61.196,25.796 61.146,25.852 C 61.149,25.828 61.151,25.804 61.154,25.781 L 61.159,25.319 C 61.245,25.274 61.306,25.189 61.317,25.081 C 61.346,24.785 61.327,24.384 61.279,24.089 C 61.273,24.058 61.268,24.027 61.263,23.995 C 61.622,23.675 61.987,23.361 62.361,23.056 C 62.795,22.64 63.249,22.244 63.713,21.855 C 65.013,20.757 66.358,19.687 67.764,18.718 C 67.981,19.071 68.194,19.428 68.402,19.788 Z M 68.966,19.113 C 68.934,19.069 68.902,19.026 68.867,18.978 C 68.853,18.953 68.835,18.925 68.815,18.897 C 68.895,18.998 68.931,19.055 68.966,19.113 Z M 68.916,19.953 L 68.917,19.955 C 68.95,20.009 68.933,19.979 68.913,19.949 C 68.914,19.95 68.915,19.951 68.916,19.953 Z M 69.666,21.348 C 69.672,21.362 69.679,21.376 69.685,21.39 C 69.639,21.283 69.547,21.105 69.442,20.932 C 69.525,21.068 69.596,21.209 69.666,21.348 Z M 57.595,21.149 C 57.578,21.112 57.562,21.075 57.547,21.039 C 57.554,21.031 57.561,21.023 57.569,21.015 C 57.591,20.99 57.614,20.967 57.637,20.943 C 57.622,21.011 57.609,21.08 57.595,21.149 Z M 58.084,21.751 L 58.429,22.551 L 58.56,22.749 C 58.536,22.811 58.512,22.872 58.486,22.932 C 58.339,22.632 58.181,22.336 58.028,22.037 C 58.045,21.95 58.062,21.86 58.08,21.772 L 58.084,21.751 Z M 59.629,22.095 L 59.738,22.358 L 59.711,22.406 L 59.64,22.539 L 59.546,22.37 L 59.547,22.372 C 59.554,22.354 59.561,22.335 59.568,22.316 C 59.591,22.248 59.612,22.177 59.632,22.104 L 59.629,22.095 Z M 60.003,22.995 L 60.065,23.144 L 60.107,23.271 L 59.969,23.06 L 60.003,22.995 Z M 18.335,23.341 L 18.345,23.374 L 18.44,23.693 L 18.383,23.965 C 18.373,23.863 18.365,23.761 18.357,23.659 C 18.348,23.555 18.341,23.449 18.335,23.341 Z M 5.155,23.726 C 5.139,23.768 5.124,23.812 5.109,23.854 C 5.039,23.988 4.979,24.112 4.925,24.228 C 4.929,24.22 4.933,24.209 4.938,24.198 C 5.012,24.008 5.1,23.819 5.182,23.632 C 5.193,23.606 5.203,23.582 5.214,23.557 C 5.194,23.612 5.174,23.669 5.155,23.726 Z M 59.708,23.717 L 59.71,23.72 L 60.434,24.772 C 60.177,25.009 59.915,25.251 59.66,25.495 C 59.537,25.163 59.408,24.842 59.262,24.517 C 59.316,24.426 59.369,24.335 59.423,24.244 C 59.521,24.071 59.611,23.891 59.708,23.717 Z M 57.69,24.31 L 57.692,24.31 L 57.497,24.657 L 57.615,24.167 C 57.639,24.215 57.665,24.262 57.69,24.31 Z M 4.587,25.065 C 4.657,24.866 4.732,24.668 4.835,24.443 C 4.635,24.77 4.743,24.523 4.895,24.295 C 4.904,24.274 4.914,24.252 4.925,24.228 C 4.813,24.509 4.696,24.786 4.587,25.065 Z M 4.872,25.61 C 4.869,25.615 4.865,25.619 4.861,25.624 C 4.928,25.427 4.998,25.231 5.076,25.04 C 5.004,25.226 4.938,25.418 4.872,25.61 Z M 71.494,25.551 C 71.556,25.724 71.616,25.899 71.675,26.074 C 71.586,25.823 71.501,25.59 71.416,25.357 C 71.447,25.421 71.47,25.486 71.494,25.551 Z M 4.538,26.677 C 4.604,26.395 4.693,26.121 4.785,25.852 C 4.788,25.839 4.792,25.827 4.795,25.816 C 4.8,25.811 4.803,25.807 4.807,25.803 C 4.71,26.092 4.619,26.382 4.538,26.677 Z M 71.836,26.541 C 71.844,26.564 71.852,26.587 71.894,26.711 C 71.84,26.552 71.789,26.403 71.74,26.261 L 71.738,26.262 C 71.77,26.354 71.802,26.447 71.836,26.541 Z M 72.088,27.345 C 72.099,27.384 72.111,27.422 72.121,27.46 C 72.07,27.28 72.011,27.086 71.947,26.896 C 72.007,27.072 72.047,27.21 72.088,27.345 Z M 19.493,27.691 C 19.656,27.932 19.854,28.196 20.047,28.413 C 20.287,28.684 20.514,28.954 20.774,29.209 C 21.016,29.446 21.263,29.68 21.515,29.906 C 21.647,30.079 21.781,30.25 21.921,30.42 C 22.573,31.218 23.352,31.971 24.147,32.624 C 24.588,32.986 25.069,33.356 25.55,33.661 C 25.564,33.669 25.579,33.678 25.594,33.688 C 25.285,33.54 24.968,33.384 24.676,33.213 C 24.271,32.975 23.853,32.734 23.471,32.461 C 22.559,31.81 21.756,31.119 21.028,30.271 C 20.205,29.313 19.581,28.268 19.14,27.151 C 19.251,27.331 19.37,27.509 19.493,27.691 Z M 72.23,27.866 C 72.199,27.744 72.163,27.607 72.121,27.46 C 72.161,27.594 72.198,27.729 72.23,27.866 Z M 3.924,28.804 C 3.943,28.693 3.973,28.581 4.002,28.47 C 4.038,28.332 4.075,28.195 4.181,27.868 C 4.073,28.222 3.973,28.58 3.924,28.804 Z M 56.395,28.313 L 56.208,28.557 L 56.206,28.56 L 56.395,28.313 Z M 72.603,29.225 C 72.627,29.332 72.653,29.439 72.674,29.548 C 72.638,29.391 72.59,29.177 72.531,28.964 C 72.574,29.098 72.589,29.161 72.603,29.225 Z M 72.875,30.423 C 72.872,30.425 72.87,30.427 72.867,30.429 C 72.848,30.333 72.818,30.183 72.741,29.823 C 72.798,30.075 72.841,30.267 72.875,30.423 Z M 3.393,30.997 L 3.402,30.948 C 3.47,30.623 3.546,30.291 3.629,29.947 C 3.543,30.311 3.462,30.662 3.393,30.997 Z M 72.988,30.972 C 73.038,31.239 73.08,31.51 73.127,31.778 C 73.17,32.024 73.21,32.271 73.215,32.524 C 73.131,31.888 73.027,31.267 72.908,30.638 C 72.912,30.635 72.916,30.632 72.92,30.629 C 72.946,30.76 72.967,30.865 72.988,30.972 Z M 26.429,32.331 C 26.794,32.501 27.163,32.661 27.53,32.826 C 27.902,32.994 28.282,33.142 28.658,33.302 C 28.469,33.248 28.283,33.192 28.098,33.143 C 27.87,33.066 27.643,32.99 27.414,32.907 C 26.992,32.754 26.54,32.548 26.14,32.346 C 25.301,31.92 24.528,31.471 23.77,30.938 C 24.639,31.435 25.521,31.907 26.429,32.331 Z M 3.307,31.437 C 3.325,31.332 3.346,31.225 3.368,31.118 L 3.362,31.143 C 3.343,31.24 3.324,31.339 3.307,31.437 Z M 3.193,32.031 C 3.191,31.981 3.201,31.932 3.211,31.882 C 3.239,31.736 3.267,31.59 3.307,31.437 C 3.26,31.647 3.225,31.842 3.193,32.031 Z M 23.67,31.553 L 24.097,31.828 L 24.816,32.385 C 26.094,33.266 27.466,34.017 28.863,34.643 C 29.334,34.854 29.83,35.057 30.333,35.242 C 30.194,35.215 30.056,35.188 29.917,35.156 C 29.711,35.109 29.505,35.058 29.297,35.006 C 29.068,34.92 28.837,34.827 28.608,34.73 C 28.022,34.481 27.397,34.194 26.848,33.875 C 26.645,33.756 26.431,33.64 26.233,33.514 C 26.087,33.421 25.94,33.322 25.792,33.233 C 25.444,33.024 25.115,32.75 24.787,32.514 C 24.495,32.304 24.197,32.044 23.928,31.804 C 23.822,31.71 23.718,31.614 23.614,31.517 L 23.67,31.553 Z M 46.952,33.543 C 46.864,33.556 46.776,33.566 46.689,33.575 C 47.034,33.461 47.377,33.339 47.718,33.211 C 47.465,33.325 47.209,33.436 46.952,33.543 Z M 27.48,33.505 L 28.94,33.96 C 29.697,34.152 30.444,34.321 31.212,34.469 C 31.631,34.549 32.055,34.619 32.481,34.681 C 33.656,35.055 34.844,35.39 36.05,35.665 C 36.172,35.693 36.294,35.719 36.416,35.746 C 36.245,35.75 36.075,35.752 35.908,35.755 C 35.207,35.764 34.516,35.723 33.82,35.677 C 32.95,35.496 32.107,35.27 31.254,35.007 C 30.299,34.713 29.367,34.369 28.459,33.971 L 27.48,33.505 Z M 45.368,34.048 C 45.458,34.048 45.549,34.047 45.641,34.046 C 44.684,34.385 43.709,34.672 42.733,34.91 C 41.845,35.127 40.958,35.296 40.054,35.433 C 39.818,35.468 39.574,35.51 39.337,35.533 C 39.087,35.556 38.838,35.593 38.588,35.615 C 38.041,35.554 37.502,35.456 36.962,35.344 C 36.42,35.23 35.87,35.108 35.33,34.97 C 35.673,34.989 36.016,35.002 36.36,35.012 C 38.153,35.061 39.956,34.966 41.732,34.713 C 42.209,34.644 42.693,34.573 43.166,34.48 C 43.804,34.355 44.427,34.211 45.049,34.049 C 45.156,34.05 45.262,34.048 45.368,34.048 Z M 73.485,34.78 C 73.495,34.925 73.506,35.071 73.49,35.222 C 73.491,34.975 73.469,34.653 73.432,34.341 C 73.467,34.559 73.476,34.669 73.485,34.78 Z M 2.344,37.021 C 2.317,37.058 2.291,37.094 2.266,37.131 C 2.276,36.789 2.297,36.448 2.34,36.108 C 2.333,36.415 2.334,36.72 2.344,37.021 Z M 2.699,36.583 L 2.698,36.584 C 2.698,36.461 2.7,36.343 2.705,36.224 C 2.706,36.193 2.707,36.164 2.715,36.132 C 2.705,36.28 2.702,36.429 2.699,36.583 Z M 68.904,38.637 C 68.226,39.147 67.567,39.669 66.914,40.21 C 66.586,40.482 66.265,40.769 65.943,41.048 C 65.226,41.668 64.518,42.329 63.846,42.998 C 63.826,43.016 63.826,43.05 63.845,43.07 C 63.864,43.09 63.898,43.09 63.917,43.071 C 64.756,42.236 65.634,41.469 66.53,40.697 C 67.215,40.107 67.931,39.551 68.657,39.015 C 69.835,38.145 71.096,37.31 72.385,36.614 C 72.439,36.583 72.459,36.511 72.428,36.457 C 72.396,36.403 72.325,36.383 72.271,36.415 C 71.108,37.1 69.984,37.825 68.904,38.637 Z M 2.786,38.072 C 2.758,37.928 2.749,37.754 2.74,37.617 C 2.733,37.51 2.726,37.405 2.728,37.153 C 2.723,37.478 2.755,37.797 2.786,38.072 Z M 74.31,37.706 C 74.317,37.616 74.316,37.525 74.31,37.435 C 74.314,37.541 74.315,37.647 74.31,37.706 Z M 73.534,38.983 C 73.511,39.37 73.491,39.762 73.451,40.15 C 73.437,40.458 73.407,40.764 73.39,40.762 C 73.365,41.077 73.328,41.392 73.263,41.55 C 73.303,41.372 73.325,41.191 73.344,41.01 C 73.451,40.013 73.536,38.993 73.522,37.986 C 73.564,38.394 73.551,38.69 73.534,38.983 Z M 63.411,46.413 L 63.408,46.469 L 63.464,46.472 C 66.324,43.93 69.225,41.508 72.524,39.558 C 72.568,39.531 72.583,39.473 72.556,39.43 C 72.529,39.386 72.471,39.371 72.428,39.398 C 69.163,41.383 66.259,43.881 63.411,46.413 Z M 73.81,40.373 C 73.732,41.139 73.644,41.913 73.513,42.668 C 73.461,42.971 73.415,43.277 73.36,43.58 C 73.31,43.856 73.247,44.133 73.199,44.41 C 73.165,44.613 73.113,44.814 73.071,45.016 C 72.934,45.657 72.775,46.282 72.615,46.917 C 72.539,47.217 72.454,47.515 72.365,47.812 C 72.267,48.261 72.119,48.696 71.96,49.126 C 71.829,49.479 71.694,49.828 71.552,50.174 C 71.629,49.96 71.705,49.747 71.781,49.531 C 72.059,48.729 72.29,47.893 72.516,47.074 C 72.674,46.499 72.819,45.914 72.951,45.328 C 73.18,44.382 73.37,43.425 73.512,42.169 C 73.545,42.073 73.558,41.976 73.572,41.88 C 73.643,41.342 73.711,40.803 73.737,40.259 C 73.807,40.029 73.824,39.801 73.818,39.573 C 73.833,39.842 73.823,40.108 73.81,40.373 Z M 74.144,41.097 C 74.196,40.768 74.224,40.438 74.226,40.078 C 74.218,40.472 74.178,40.864 74.144,41.097 Z M 2.721,40.602 C 2.666,41.097 2.627,41.612 2.61,42.122 C 2.583,42.15 2.555,42.179 2.526,42.206 C 2.523,42.185 2.521,42.163 2.519,42.142 C 2.483,41.808 2.439,41.474 2.41,41.141 C 2.391,40.939 2.375,40.738 2.36,40.537 C 2.363,40.533 2.366,40.53 2.369,40.527 C 2.494,40.381 2.634,40.214 2.782,40.051 C 2.758,40.235 2.74,40.422 2.721,40.602 Z M 1.988,40.394 C 1.977,40.318 1.968,40.242 1.96,40.174 C 1.959,40.162 1.959,40.158 1.956,40.114 C 1.966,40.233 1.975,40.313 1.988,40.394 Z M 1.988,40.394 C 1.986,40.432 1.986,40.471 1.985,40.499 C 1.985,40.497 1.985,40.495 1.985,40.494 C 1.984,40.494 1.984,40.496 1.984,40.499 C 1.986,40.686 1.98,40.578 1.981,40.452 C 1.976,40.4 1.971,40.331 1.966,40.262 C 1.971,40.309 1.978,40.35 1.988,40.394 Z M 1.984,40.499 L 1.985,40.502 C 1.984,40.504 1.984,40.502 1.984,40.499 Z M 21.087,40.603 L 20.919,40.645 L 20.797,40.602 C 20.714,40.58 20.631,40.565 20.553,40.561 C 20.248,40.543 19.989,40.528 19.691,40.634 C 19.652,40.648 19.472,40.709 19.456,40.725 C 19.183,40.86 18.885,41.002 18.659,41.212 C 18.399,41.452 18.12,41.718 17.959,42.04 C 17.886,42.185 17.816,42.316 17.751,42.465 C 17.695,42.595 17.655,42.749 17.616,42.885 C 17.455,43.444 17.439,44.191 17.523,44.766 C 17.574,45.117 17.646,45.462 17.738,45.801 L 17.995,46.563 L 18.06,47.004 C 18.213,47.746 18.534,48.454 19.014,49.081 C 19.244,49.382 19.535,49.645 19.863,49.85 L 20.215,50.032 C 20.871,50.888 21.833,51.541 22.914,51.663 C 23.162,51.691 23.413,51.683 23.661,51.664 C 24.296,51.617 24.897,51.353 25.437,51.046 C 25.712,50.889 26.019,50.642 26.238,50.412 C 26.976,49.635 27.307,48.588 27.252,47.536 C 27.442,46.68 27.383,45.768 27.061,44.954 C 26.935,44.636 26.801,44.342 26.615,44.054 C 26.569,43.983 26.528,43.907 26.476,43.839 C 26.396,43.737 26.321,43.617 26.237,43.519 C 26.155,43.424 26.071,43.331 25.989,43.236 C 25.976,43.221 25.962,43.206 25.948,43.191 C 25.954,43.147 25.942,43.104 25.903,43.069 C 25.866,43.035 25.825,43.025 25.782,43.028 C 25.772,43.019 25.763,43.01 25.754,43.002 C 25.635,42.891 25.521,42.79 25.405,42.698 L 25.266,42.596 L 24.753,41.983 C 23.719,40.929 22.587,40.33 21.087,40.603 Z M 52.839,40.953 C 52.826,40.964 52.814,40.976 52.801,40.987 C 52.631,40.998 52.462,41.021 52.294,41.058 C 51.923,41.138 51.59,41.227 51.238,41.374 C 49.424,42.128 47.872,43.984 47.865,46.008 C 47.863,46.504 47.951,46.945 48.121,47.408 C 48.135,47.449 48.152,47.491 48.172,47.536 C 48.365,48.563 48.88,49.372 49.712,50.062 C 49.927,50.241 50.238,50.447 50.492,50.563 C 50.64,50.63 50.771,50.696 50.922,50.754 C 51.7,51.054 52.445,51.17 53.27,51.045 C 54.624,50.838 55.644,49.894 56.239,48.707 C 56.387,48.641 56.536,48.577 56.684,48.513 C 56.797,48.463 56.921,48.418 57.024,48.351 C 57.208,48.231 57.348,48.075 57.503,47.924 C 57.31,47.935 57.119,47.942 56.929,47.988 C 56.774,48.026 56.624,48.092 56.477,48.159 C 56.512,48.062 56.546,47.965 56.577,47.866 C 56.641,47.762 56.702,47.655 56.762,47.542 C 57.479,46.184 57.342,44.659 56.638,43.33 C 56.643,43.315 56.647,43.301 56.65,43.289 C 56.662,43.231 56.644,43.174 56.604,43.13 C 56.567,43.09 56.525,43.073 56.481,43.071 C 56.346,42.874 56.179,42.677 56.021,42.534 C 55.653,42.202 55.242,41.982 54.797,41.848 C 54.58,41.673 54.383,41.546 54.123,41.432 L 54.065,41.414 L 54.185,41.389 C 54.22,41.367 54.245,41.331 54.254,41.288 C 54.271,41.201 54.214,41.114 54.127,41.097 C 53.825,41.036 53.518,40.993 53.211,40.982 C 53.216,40.946 53.213,40.911 53.199,40.884 C 53.182,40.85 53.153,40.824 53.117,40.811 C 52.983,40.759 52.923,40.875 52.839,40.953 Z M 21.723,41.087 L 22.058,41.092 C 22.461,41.129 22.838,41.257 23.188,41.447 L 23.668,41.771 L 23.285,41.669 C 22.947,41.598 22.622,41.573 22.271,41.585 L 21.976,41.278 L 21.723,41.087 Z M 20.928,41.205 L 21.026,41.248 C 20.601,41.619 20.211,42.072 19.846,42.489 L 19.39,43.036 L 19.007,43.389 C 19.029,43.233 19.054,43.077 19.112,42.93 C 19.163,42.802 19.208,42.674 19.26,42.545 C 19.441,42.097 19.901,41.644 20.327,41.426 C 20.457,41.36 20.687,41.258 20.825,41.227 L 20.928,41.205 Z M 19.662,41.206 L 19.419,41.398 C 19.244,41.543 19.099,41.751 18.971,41.936 C 18.874,42.075 18.782,42.253 18.719,42.41 C 18.565,42.791 18.477,43.14 18.432,43.496 L 18.414,43.729 C 18.297,43.873 18.182,44.02 18.065,44.164 C 18.05,44.181 18.024,44.21 17.997,44.241 C 17.994,44.162 17.992,44.082 17.993,44.003 C 17.993,43.842 18,43.657 18.026,43.499 C 18.058,43.301 18.092,43.131 18.139,42.938 C 18.179,42.778 18.258,42.617 18.323,42.467 C 18.446,42.186 18.717,41.838 18.956,41.645 C 19.067,41.555 19.182,41.47 19.303,41.393 L 19.662,41.206 Z M 21.559,41.594 L 21.638,41.671 L 21.171,41.806 C 21.037,41.857 20.908,41.916 20.785,41.98 C 20.964,41.799 21.157,41.627 21.323,41.432 L 21.325,41.429 L 21.329,41.424 C 21.405,41.477 21.477,41.534 21.559,41.594 Z M 3.014,44.147 L 3.219,45.408 C 3.186,45.437 3.154,45.465 3.121,45.494 C 3.078,45.31 3.036,45.127 2.997,44.943 C 2.872,44.374 2.762,43.807 2.674,43.233 C 2.673,43.185 2.673,43.138 2.673,43.092 C 2.668,42.808 2.67,42.526 2.676,42.244 C 2.702,42.218 2.728,42.193 2.753,42.167 C 2.831,42.083 2.911,42.001 2.99,41.92 C 2.962,42.657 2.969,43.384 3.014,44.147 Z M 49.288,43.96 C 49.097,44.205 48.906,44.501 48.806,44.726 C 48.699,44.964 48.616,45.186 48.56,45.403 C 48.435,45.577 48.335,45.775 48.262,45.982 C 48.261,45.685 48.298,45.385 48.369,45.087 C 48.401,44.946 48.446,44.772 48.501,44.639 C 48.587,44.431 48.67,44.253 48.768,44.052 C 48.933,43.713 49.242,43.281 49.506,43.013 C 49.687,42.827 49.853,42.649 50.058,42.484 C 50.15,42.409 50.244,42.337 50.342,42.268 C 49.894,42.738 49.532,43.325 49.288,43.96 Z M 2.601,42.73 C 2.583,42.609 2.564,42.488 2.547,42.366 C 2.567,42.349 2.586,42.331 2.605,42.313 C 2.602,42.452 2.6,42.592 2.601,42.73 Z M 53.652,42.321 C 53.402,42.446 53.145,42.597 52.944,42.731 C 52.611,42.953 52.285,43.162 51.967,43.408 L 51.653,43.666 L 52.033,43.145 C 52.178,42.933 52.317,42.715 52.451,42.492 C 52.774,42.388 53.109,42.319 53.469,42.288 C 53.496,42.285 53.527,42.283 53.558,42.281 C 53.588,42.293 53.62,42.306 53.652,42.321 Z M 54.104,42.566 L 54.393,42.773 C 54.311,42.812 54.23,42.852 54.149,42.892 L 53.735,43.11 L 53.947,42.813 C 53.995,42.74 54.042,42.664 54.091,42.591 C 54.095,42.584 54.1,42.576 54.106,42.568 L 54.104,42.566 Z M 51.758,43.021 C 51.524,43.36 51.284,43.681 51.028,44.003 C 51.142,43.779 51.266,43.561 51.401,43.353 L 51.887,42.715 L 51.972,42.68 L 51.985,42.675 C 51.91,42.793 51.834,42.91 51.758,43.021 Z M 53.646,42.688 L 53.413,43.041 L 53.092,43.476 L 52.622,43.763 C 52.366,43.936 52.116,44.119 51.88,44.295 C 51.693,44.434 51.508,44.577 51.326,44.723 C 51.297,44.658 51.236,44.609 51.162,44.599 C 51.123,44.591 51.082,44.584 51.041,44.577 L 51.151,44.48 C 51.48,44.197 51.815,43.919 52.16,43.657 C 52.471,43.419 52.79,43.219 53.11,42.998 C 53.271,42.886 53.446,42.788 53.625,42.697 L 53.646,42.688 Z M 21.91,43.022 C 21.767,43.044 21.624,43.074 21.482,43.109 C 21.555,43.025 21.63,42.945 21.704,42.863 C 21.717,42.848 21.731,42.833 21.745,42.817 C 21.831,42.802 21.922,42.793 21.998,42.789 C 22.072,42.783 22.147,42.783 22.223,42.786 C 22.118,42.864 22.015,42.942 21.91,43.022 Z M 22.611,42.957 C 22.58,42.958 22.548,42.959 22.517,42.961 C 22.54,42.944 22.563,42.929 22.587,42.912 C 22.594,42.928 22.603,42.942 22.611,42.957 Z M 54.675,43.024 L 54.765,43.105 L 54.556,43.42 C 54.443,43.578 54.324,43.732 54.206,43.881 C 54.128,43.979 54.047,44.091 53.962,44.181 C 53.854,44.294 53.757,44.422 53.65,44.534 C 53.538,44.648 53.428,44.764 53.319,44.881 L 53.003,45.181 L 52.243,45.693 C 51.735,46.054 51.232,46.425 50.728,46.791 C 50.572,46.904 50.416,47.02 50.262,47.138 C 50.204,47.027 50.155,46.912 50.113,46.793 C 50.15,46.767 50.186,46.742 50.222,46.717 C 50.664,46.399 51.105,46.061 51.504,45.69 C 51.965,45.26 52.402,44.804 52.81,44.322 L 53.247,43.775 L 53.62,43.548 C 53.894,43.394 54.172,43.249 54.459,43.115 L 54.675,43.024 Z M 21.11,43.094 L 20.941,43.287 C 20.919,43.296 20.897,43.306 20.877,43.316 L 20.598,43.463 L 20.602,43.458 L 21.11,43.094 Z M 23.587,43.235 L 23.585,43.239 L 23.449,43.465 C 23.434,43.486 23.42,43.506 23.406,43.528 C 23.382,43.464 23.357,43.4 23.332,43.337 L 23.524,43.2 L 23.526,43.199 C 23.547,43.21 23.568,43.222 23.587,43.235 Z M 73.796,43.718 C 73.687,44.309 73.576,44.898 73.432,45.482 C 73.602,44.787 73.746,44.06 73.847,43.324 C 73.835,43.496 73.816,43.606 73.796,43.718 Z M 55.291,43.721 C 55.105,43.832 54.918,43.944 54.731,44.055 L 54.183,44.4 L 54.504,44.035 C 54.681,43.812 54.848,43.587 55.006,43.352 C 55.107,43.469 55.201,43.592 55.291,43.721 Z M 21.617,44.277 C 21.245,44.583 20.865,44.885 20.501,45.2 C 20.165,45.489 19.853,45.764 19.548,46.074 C 19.569,45.818 19.614,45.555 19.684,45.319 C 19.987,45.049 20.296,44.785 20.593,44.519 C 20.96,44.19 21.346,43.87 21.732,43.565 C 21.763,43.539 21.794,43.514 21.826,43.49 C 22.059,43.442 22.312,43.416 22.557,43.405 C 22.259,43.711 21.943,44.006 21.617,44.277 Z M 24.368,43.82 C 24.125,43.983 23.884,44.152 23.644,44.323 C 23.612,44.188 23.574,44.048 23.517,43.912 C 23.52,43.909 23.522,43.906 23.525,43.903 C 23.595,43.792 23.679,43.683 23.753,43.574 C 23.79,43.519 23.825,43.464 23.861,43.41 C 24.044,43.536 24.215,43.675 24.368,43.82 Z M 50.515,43.796 C 50.541,43.736 50.57,43.677 50.601,43.62 L 50.639,43.554 L 50.703,43.446 C 50.627,43.555 50.557,43.668 50.515,43.796 Z M 18.986,43.547 L 18.981,43.553 L 18.982,43.55 L 18.986,43.547 Z M 23.055,44.017 C 22.511,44.741 21.891,45.42 21.266,46.031 C 20.964,46.326 20.65,46.61 20.34,46.897 C 20.292,46.941 20.214,46.996 20.151,47.073 L 20.103,47.156 C 20.095,47.19 20.1,47.226 20.124,47.263 C 20.173,47.341 20.247,47.329 20.329,47.285 L 20.354,47.262 L 20.508,47.146 C 20.844,46.878 21.184,46.614 21.515,46.342 C 22.093,45.864 22.684,45.407 23.286,44.963 C 23.336,45.265 23.366,45.569 23.37,45.868 C 23.37,45.898 23.37,45.93 23.371,45.961 L 23.366,45.966 L 23.244,46.086 L 22.742,46.485 C 22.256,46.886 21.782,47.303 21.274,47.673 L 21.143,47.771 L 21.109,47.797 C 21.05,47.854 21.023,47.915 21.059,47.99 C 21.08,48.034 21.119,48.069 21.168,48.079 C 21.19,48.083 21.216,48.079 21.244,48.07 L 21.305,48.043 L 21.331,48.029 C 21.39,47.995 21.448,47.953 21.486,47.928 C 21.756,47.756 22.014,47.568 22.267,47.374 C 22.528,47.171 22.79,46.952 23.047,46.721 L 23.35,46.428 L 23.362,46.415 C 23.358,46.473 23.353,46.53 23.345,46.585 C 23.329,46.695 23.321,46.807 23.305,46.918 C 23.297,46.973 23.28,47.029 23.271,47.085 C 23.228,47.359 23.153,47.636 23.052,47.902 C 22.998,47.945 22.943,47.986 22.89,48.03 C 22.505,48.335 22.126,48.629 21.769,48.969 L 21.75,48.988 C 21.326,48.895 20.907,48.756 20.525,48.556 L 20.3,48.422 L 20.271,48.382 C 20.031,48.001 19.823,47.6 19.638,47.19 C 19.613,47.06 19.593,46.929 19.572,46.8 C 19.558,46.723 19.549,46.64 19.543,46.554 C 19.581,46.518 19.615,46.487 19.64,46.466 C 19.982,46.175 20.317,45.873 20.651,45.574 C 21.137,45.138 21.625,44.71 22.119,44.284 C 22.372,44.065 22.648,43.836 22.919,43.633 C 22.968,43.759 23.013,43.888 23.055,44.017 Z M 20.994,43.769 L 20.984,43.777 L 20.687,44.036 L 20.845,43.85 L 20.85,43.845 C 20.896,43.819 20.945,43.794 20.994,43.769 Z M 50.268,44.305 L 50.25,44.347 L 50.292,44.214 C 50.35,44.067 50.417,43.923 50.515,43.796 C 50.427,43.962 50.347,44.132 50.268,44.305 Z M 18.408,43.825 L 18.401,43.925 L 18.167,44.129 L 18.408,43.825 Z M 72.755,44.711 C 72.681,45.026 72.604,45.34 72.485,45.638 C 72.632,45.138 72.766,44.557 72.873,43.969 C 72.834,44.357 72.795,44.534 72.755,44.711 Z M 24.837,44.31 C 24.803,44.352 24.77,44.395 24.735,44.436 C 24.433,44.793 24.142,45.161 23.825,45.504 C 23.804,45.221 23.765,44.937 23.712,44.651 C 23.897,44.517 24.084,44.384 24.272,44.252 C 24.373,44.18 24.479,44.108 24.587,44.039 C 24.673,44.129 24.757,44.219 24.837,44.31 Z M 18.377,44.046 L 18.376,44.048 L 18.237,44.356 C 18.188,44.475 18.144,44.595 18.113,44.723 L 18.074,44.921 L 18.027,44.627 C 18.016,44.537 18.008,44.446 18.003,44.355 C 18.072,44.307 18.156,44.229 18.224,44.173 C 18.275,44.131 18.326,44.088 18.377,44.046 Z M 55.515,44.663 C 55.475,44.718 55.438,44.771 55.401,44.821 C 55.187,45.109 54.925,45.385 54.671,45.637 L 54.358,45.922 L 54.251,45.994 C 53.664,46.4 53.106,46.863 52.559,47.321 L 52.221,47.596 L 51.523,48.098 C 51.494,48.117 51.466,48.137 51.439,48.156 C 51.417,48.146 51.396,48.138 51.375,48.128 C 51.392,48.109 51.41,48.09 51.428,48.072 L 51.369,48.125 C 51.154,48.025 50.951,47.901 50.768,47.759 C 50.686,47.695 50.611,47.623 50.542,47.546 C 50.687,47.451 50.832,47.353 50.976,47.253 C 51.612,46.808 52.252,46.307 52.854,45.767 L 53.085,45.544 L 54.637,44.545 L 55.415,44.087 L 55.441,44.072 C 55.478,44.266 55.503,44.465 55.515,44.663 Z M 52.439,44.299 L 52.356,44.401 C 51.795,45.045 51.134,45.679 50.449,46.187 C 50.344,46.264 50.239,46.344 50.133,46.423 C 50.136,46.411 50.139,46.399 50.143,46.388 C 50.169,46.292 50.193,46.195 50.22,46.099 C 50.233,46.087 50.246,46.074 50.26,46.061 C 50.564,45.769 50.884,45.505 51.203,45.23 C 51.465,45.004 51.748,44.789 52.028,44.584 L 52.439,44.299 Z M 23.222,44.633 C 23.12,44.708 23.018,44.785 22.919,44.862 L 22.254,45.392 L 22.766,44.851 C 22.902,44.694 23.032,44.538 23.16,44.378 C 23.182,44.463 23.202,44.548 23.222,44.633 Z M 25.21,44.773 C 25.025,44.855 24.843,44.95 24.665,45.053 L 24.605,45.093 L 25.034,44.553 L 25.038,44.548 C 25.097,44.621 25.154,44.695 25.21,44.773 Z M 18.425,44.787 L 18.481,45.226 L 18.433,45.421 C 18.404,45.587 18.385,45.755 18.378,45.924 L 18.385,46.152 L 18.278,45.833 L 18.264,45.78 L 18.265,45.609 C 18.278,45.438 18.302,45.261 18.337,45.086 L 18.411,44.806 C 18.417,44.805 18.422,44.804 18.427,44.804 L 18.425,44.787 Z M 2.623,44.869 C 2.639,44.97 2.643,45.006 2.637,44.974 C 2.631,44.954 2.619,44.878 2.611,44.801 C 2.615,44.824 2.619,44.848 2.623,44.869 Z M 2.671,45.14 C 2.668,45.126 2.659,45.078 2.623,44.869 C 2.62,44.854 2.617,44.838 2.615,44.821 C 2.635,44.94 2.654,45.047 2.671,45.14 Z M 19.247,44.924 L 19.287,44.919 L 19.161,45.236 C 19.143,45.288 19.127,45.34 19.112,45.393 C 19.099,45.406 19.087,45.42 19.074,45.434 L 19.041,45.295 L 19.095,45.044 L 19.148,44.905 C 19.18,44.916 19.213,44.922 19.247,44.924 Z M 50.985,45.005 C 50.786,45.172 50.591,45.344 50.399,45.52 C 50.462,45.336 50.529,45.151 50.616,44.966 C 50.734,44.971 50.856,44.984 50.985,45.005 Z M 2.638,44.984 C 2.638,44.984 2.637,44.979 2.637,44.975 C 2.637,44.976 2.637,44.976 2.637,44.974 C 2.637,44.979 2.637,44.984 2.638,44.984 Z M 2.638,44.984 C 2.683,45.289 2.652,45.147 2.638,44.984 Z M 25.598,45.381 C 25.517,45.532 25.406,45.686 25.312,45.822 C 25.28,45.866 25.248,45.922 25.214,45.963 C 24.89,46.361 24.536,46.717 24.143,47.048 C 23.994,47.172 23.842,47.294 23.689,47.413 C 23.8,46.96 23.849,46.49 23.847,46.011 C 24.172,45.767 24.508,45.539 24.854,45.347 C 25.04,45.242 25.222,45.161 25.414,45.072 C 25.477,45.172 25.538,45.276 25.598,45.381 Z M 2.673,45.145 L 2.676,45.168 C 2.675,45.166 2.675,45.165 2.675,45.163 C 2.683,45.212 2.677,45.178 2.671,45.14 C 2.672,45.142 2.672,45.143 2.673,45.145 Z M 2.675,45.164 L 2.675,45.163 C 2.689,45.246 2.689,45.246 2.675,45.164 Z M 2.677,45.178 L 2.676,45.172 L 2.677,45.176 C 2.677,45.172 2.676,45.169 2.675,45.164 C 2.675,45.168 2.676,45.173 2.677,45.178 Z M 2.715,45.334 C 2.722,45.374 2.729,45.413 2.73,45.422 C 2.804,45.793 2.8,45.778 2.682,45.204 L 2.677,45.173 L 2.677,45.175 C 2.679,45.189 2.678,45.184 2.677,45.178 L 2.676,45.168 C 2.689,45.226 2.701,45.28 2.715,45.334 Z M 2.677,45.18 C 2.677,45.179 2.677,45.177 2.677,45.175 C 2.679,45.19 2.678,45.185 2.677,45.18 Z M 2.682,45.204 L 2.681,45.199 L 2.75,45.572 C 2.735,45.496 2.715,45.392 2.677,45.18 C 2.679,45.188 2.681,45.196 2.682,45.204 Z M 2.804,45.741 C 2.804,45.748 2.805,45.756 2.807,45.765 C 2.805,45.766 2.803,45.768 2.801,45.769 C 2.791,45.721 2.775,45.643 2.75,45.519 C 2.743,45.484 2.73,45.413 2.715,45.334 C 2.742,45.467 2.77,45.601 2.804,45.741 Z M 3.247,45.59 L 3.434,46.737 C 3.337,46.381 3.247,46.024 3.161,45.666 C 3.19,45.64 3.22,45.616 3.248,45.591 L 3.247,45.59 Z M 67.105,49.482 C 66.654,49.84 66.149,50.192 65.654,50.487 C 65.501,50.577 65.341,50.658 65.188,50.748 C 65.102,50.799 65.007,50.837 64.918,50.883 C 64.621,51.034 64.318,51.157 64.01,51.284 C 63.983,51.295 63.971,51.325 63.981,51.352 C 63.992,51.379 64.023,51.391 64.05,51.381 C 64.239,51.302 64.435,51.227 64.623,51.146 C 65.093,50.94 65.579,50.666 66.013,50.393 C 67.488,49.463 68.777,48.241 70.096,47.11 C 70.489,46.773 70.904,46.431 71.322,46.126 C 71.479,46.012 71.64,45.901 71.796,45.785 C 71.842,45.752 71.853,45.686 71.819,45.64 C 71.786,45.595 71.719,45.584 71.674,45.617 C 70.053,46.77 68.666,48.247 67.105,49.482 Z M 48.982,46.399 C 48.967,46.35 48.961,46.3 48.956,46.25 C 48.946,46.241 48.938,46.231 48.933,46.221 C 48.892,46.159 48.907,46.105 48.94,46.059 C 48.937,45.972 48.934,45.885 48.935,45.797 L 48.937,45.752 C 48.89,45.963 48.874,46.178 48.982,46.399 Z M 26.033,46.348 C 25.909,46.407 25.785,46.469 25.663,46.526 L 24.608,47.094 L 25.101,46.63 C 25.281,46.441 25.455,46.24 25.62,46.019 C 25.681,45.937 25.739,45.852 25.794,45.763 C 25.883,45.952 25.964,46.148 26.033,46.348 Z M 55.021,45.933 L 54.952,46.02 C 54.808,46.189 54.66,46.353 54.508,46.502 C 54.343,46.662 54.186,46.827 54.018,46.985 C 53.459,47.508 52.841,47.994 52.236,48.463 C 52.231,48.466 52.227,48.469 52.222,48.473 C 52.16,48.408 52.079,48.36 51.986,48.338 C 51.961,48.332 51.937,48.326 51.912,48.319 C 51.959,48.281 52.007,48.242 52.053,48.205 L 52.44,47.886 L 53.08,47.428 C 53.453,47.145 53.835,46.859 54.201,46.557 L 54.612,46.197 L 55.021,45.933 Z M 55.272,46.694 C 55.183,46.961 55.1,47.232 54.965,47.482 C 54.669,47.631 54.377,47.798 54.081,47.95 C 53.624,48.185 53.167,48.426 52.705,48.651 L 52.352,48.822 L 53.688,47.769 C 54.089,47.436 54.49,47.06 54.857,46.686 C 54.931,46.61 54.999,46.526 55.073,46.45 C 55.194,46.327 55.312,46.188 55.426,46.047 C 55.388,46.27 55.338,46.493 55.272,46.694 Z M 49.061,46.844 C 49.046,46.859 49.032,46.874 49.018,46.89 C 48.952,46.724 48.914,46.559 48.982,46.399 C 48.994,46.551 49.022,46.699 49.061,46.844 Z M 3.066,46.755 C 3.055,46.723 3.044,46.69 3.034,46.658 C 3.027,46.627 3.021,46.595 3.015,46.565 C 3.032,46.628 3.049,46.691 3.066,46.755 Z M 48.664,46.93 C 48.693,47.005 48.728,47.08 48.771,47.155 C 48.706,47.223 48.642,47.295 48.596,47.358 C 48.559,47.127 48.549,46.886 48.57,46.651 C 48.596,46.742 48.626,46.835 48.664,46.93 Z M 26.205,46.962 C 26.147,47.032 26.086,47.102 26.021,47.175 C 25.832,47.385 25.566,47.605 25.341,47.776 C 24.899,48.111 24.436,48.412 23.979,48.728 C 23.791,48.858 23.61,48.985 23.432,49.116 C 23.378,49.12 23.323,49.124 23.268,49.127 L 22.891,49.121 L 22.917,49.091 C 23.115,48.816 23.279,48.529 23.411,48.232 C 24.104,47.772 24.838,47.365 25.57,46.982 C 25.758,46.883 25.951,46.797 26.144,46.707 C 26.167,46.792 26.186,46.877 26.205,46.962 Z M 70.682,50.88 C 71.28,49.569 71.785,48.175 72.162,46.747 C 71.702,48.476 71.256,49.7 70.682,50.88 Z M 72.905,47.47 C 72.829,47.746 72.728,48.024 72.639,48.297 C 72.617,48.362 72.596,48.428 72.572,48.493 C 72.682,48.177 72.799,47.815 72.909,47.453 C 72.908,47.458 72.906,47.464 72.905,47.47 Z M 49.001,47.475 L 49.32,47.825 L 49.326,47.865 C 49.302,47.884 49.278,47.902 49.256,47.921 C 49.219,47.949 49.167,47.986 49.116,48.025 L 49.045,48.09 C 48.929,47.967 48.824,47.833 48.733,47.69 L 48.695,47.615 C 48.789,47.603 48.915,47.524 49.001,47.475 Z M 25.96,47.949 C 25.952,47.961 25.944,47.974 25.936,47.986 C 25.899,48 25.862,48.015 25.828,48.03 L 25.272,48.278 L 25.758,47.908 C 25.887,47.804 26.013,47.686 26.136,47.573 C 26.151,47.559 26.167,47.544 26.181,47.53 C 26.127,47.684 26.037,47.81 25.96,47.949 Z M 55.827,47.986 C 55.684,48.181 55.514,48.358 55.339,48.525 C 55.228,48.628 55.112,48.73 54.992,48.827 L 54.985,48.829 L 54.941,48.851 L 55.267,48.577 C 55.484,48.379 55.687,48.167 55.84,47.958 C 55.836,47.968 55.832,47.977 55.827,47.986 Z M 54.707,48.046 L 54.49,48.417 L 54.09,48.674 C 53.824,48.816 53.438,48.975 53.145,49.038 C 53.016,49.066 52.891,49.101 52.761,49.125 C 52.659,49.145 52.554,49.16 52.449,49.172 C 52.834,48.987 53.224,48.809 53.602,48.612 C 53.967,48.419 54.339,48.235 54.707,48.046 Z M 49.393,48.259 L 49.4,48.411 C 49.36,48.381 49.323,48.35 49.285,48.318 C 49.319,48.3 49.355,48.28 49.393,48.259 Z M 50.005,48.394 L 50.013,48.429 L 50.027,48.467 C 50.024,48.464 50.021,48.463 50.019,48.461 L 50.005,48.394 Z M 50.407,48.763 C 50.444,48.788 50.482,48.811 50.518,48.834 C 50.492,48.854 50.466,48.874 50.44,48.895 C 50.418,48.911 50.398,48.928 50.377,48.945 C 50.339,48.931 50.302,48.917 50.265,48.902 L 50.177,48.86 L 50.027,48.467 C 50.143,48.572 50.27,48.671 50.407,48.763 Z M 72.471,48.791 C 72.378,49.038 72.287,49.285 72.186,49.528 C 72.315,49.231 72.423,48.929 72.526,48.625 C 72.495,48.725 72.483,48.758 72.471,48.791 Z M 25.929,48.76 L 25.811,49.004 C 25.781,49.038 25.752,49.072 25.723,49.106 C 25.447,49.417 25.181,49.719 24.886,50.01 C 24.762,50.133 24.596,50.308 24.456,50.408 C 24.377,50.464 24.286,50.532 24.209,50.592 C 24.154,50.629 24.104,50.643 24.054,50.656 C 23.905,50.699 23.732,50.728 23.616,50.709 C 23.039,50.752 22.507,50.556 22.016,50.233 L 21.876,50.121 L 22.099,49.961 L 22.447,49.644 L 22.766,49.66 C 22.69,49.727 22.619,49.81 22.662,49.91 C 22.684,49.964 22.713,49.998 22.77,50.017 C 22.899,50.062 23.027,49.933 23.137,49.874 C 23.27,49.802 23.405,49.721 23.538,49.638 C 23.579,49.635 23.621,49.631 23.664,49.628 C 24.082,49.59 24.448,49.495 24.842,49.365 C 25.024,49.305 25.213,49.222 25.398,49.12 L 25.929,48.76 Z M 22.571,48.84 L 22.387,49.084 L 22.253,49.063 C 22.289,49.033 22.326,49.005 22.361,48.979 C 22.436,48.92 22.515,48.863 22.594,48.806 C 22.587,48.817 22.579,48.829 22.571,48.84 Z M 49.222,48.849 L 49.256,48.87 L 49.556,49.067 L 49.648,49.292 C 49.671,49.343 49.698,49.39 49.725,49.435 C 49.537,49.259 49.369,49.061 49.222,48.849 Z M 51.27,49.166 C 51.144,49.149 51.018,49.126 50.892,49.098 C 50.913,49.083 50.934,49.069 50.956,49.054 C 51.058,49.096 51.163,49.133 51.27,49.166 Z M 21.006,49.335 L 21.318,49.439 C 21.448,49.472 21.582,49.497 21.71,49.532 L 21.916,49.574 L 21.546,49.858 L 21.339,49.693 L 21.006,49.335 Z M 53.49,49.487 L 53.489,49.488 C 53.415,49.544 53.33,49.611 53.245,49.682 C 53.231,49.69 53.216,49.698 53.202,49.706 C 53.144,49.736 53.087,49.769 53.029,49.799 L 52.819,49.89 L 52.762,49.906 L 52.49,49.967 C 51.979,50.044 51.44,50.025 50.975,49.826 L 50.92,49.797 L 50.796,49.709 L 50.624,49.522 L 50.889,49.593 C 50.912,49.598 50.936,49.601 50.959,49.606 C 50.962,49.614 50.965,49.623 50.969,49.632 C 51.032,49.781 51.178,49.727 51.289,49.686 C 51.305,49.68 51.322,49.674 51.339,49.667 C 51.975,49.744 52.628,49.706 53.213,49.573 L 53.49,49.487 Z M 71.848,50.426 C 71.793,50.578 71.738,50.733 71.779,50.582 C 71.928,50.235 72.063,49.884 72.186,49.528 C 72.089,49.831 71.971,50.129 71.848,50.426 Z M 54.392,49.967 C 54.239,50.069 54.087,50.17 53.92,50.249 C 53.83,50.291 53.722,50.33 53.628,50.367 C 53.547,50.4 53.442,50.427 53.356,50.448 C 53.057,50.52 52.791,50.549 52.525,50.545 C 52.633,50.522 52.738,50.494 52.84,50.462 L 52.882,50.443 L 53.036,50.414 C 53.365,50.333 53.686,50.22 54.019,50.069 C 54.266,49.955 54.519,49.82 54.765,49.666 C 54.648,49.776 54.525,49.878 54.392,49.967 Z M 5.044,51.284 C 5.037,51.292 5.031,51.3 5.024,51.307 C 4.965,51.171 4.908,51.035 4.852,50.899 C 4.915,51.027 4.979,51.155 5.044,51.284 Z M 4.575,51.165 C 4.632,51.305 4.693,51.445 4.751,51.577 L 4.748,51.58 C 4.701,51.478 4.656,51.375 4.612,51.273 C 4.575,51.19 4.54,51.106 4.504,51.022 C 4.528,51.069 4.551,51.117 4.575,51.165 Z M 6.793,54.404 C 6.783,54.414 6.772,54.424 6.762,54.434 C 6.652,54.253 6.54,54.074 6.43,53.894 C 6.037,53.247 5.675,52.575 5.314,51.909 C 5.264,51.815 5.213,51.722 5.165,51.63 C 5.141,51.577 5.119,51.526 5.097,51.474 C 5.107,51.465 5.116,51.455 5.125,51.444 C 5.643,52.455 6.198,53.44 6.793,54.404 Z M 69.932,52.658 C 69.864,52.794 69.796,52.931 69.726,53.066 C 69.7,53.083 69.674,53.099 69.649,53.115 C 69.92,52.582 70.178,52.042 70.422,51.496 C 70.101,52.31 70.017,52.484 69.932,52.658 Z M 5.419,53.05 C 5.426,53.065 5.433,53.08 5.443,53.093 C 5.509,53.279 5.437,53.129 5.384,52.974 C 5.4,53.012 5.409,53.03 5.419,53.05 Z M 69.414,54.492 C 69.028,55.155 68.619,55.805 68.156,56.429 C 68.597,55.781 69.005,55.086 69.382,54.403 C 69.575,54.053 69.764,53.701 69.948,53.346 C 69.775,53.73 69.596,54.111 69.414,54.492 Z M 68.435,55.391 C 68.14,55.889 67.812,56.386 67.489,56.866 C 67.101,57.443 66.703,58.006 66.284,58.561 C 66.178,58.7 66.078,58.841 65.969,58.977 C 65.946,58.991 65.923,59.005 65.899,59.019 C 67.253,57.279 68.459,55.404 69.486,53.432 C 69.51,53.418 69.535,53.403 69.559,53.388 C 69.203,54.066 68.825,54.731 68.435,55.391 Z M 8.018,56.28 C 8.052,56.33 8.087,56.38 8.121,56.43 C 8.112,56.438 8.101,56.447 8.091,56.456 C 7.821,56.076 7.559,55.687 7.311,55.296 C 7.168,55.071 7.017,54.853 6.879,54.625 C 6.865,54.602 6.851,54.58 6.838,54.559 C 6.848,54.548 6.859,54.538 6.869,54.528 C 7.236,55.12 7.619,55.703 8.018,56.28 Z M 69.245,55.498 C 69.358,55.317 69.469,55.134 69.57,54.941 C 69.447,55.181 69.308,55.412 69.245,55.498 Z M 69.181,55.602 C 69.192,55.579 69.204,55.556 69.214,55.534 C 69.219,55.532 69.23,55.519 69.245,55.498 C 69.223,55.533 69.201,55.567 69.181,55.602 Z M 67.998,56.691 C 67.876,56.872 67.756,57.053 67.635,57.234 C 67.822,56.972 68.007,56.708 68.156,56.429 C 68.11,56.522 68.054,56.607 67.998,56.691 Z M 9.598,58.384 C 9.59,58.392 9.589,58.393 9.589,58.395 C 9.579,58.408 9.573,58.424 9.572,58.44 C 9.179,57.945 8.809,57.439 8.435,56.931 C 8.347,56.812 8.259,56.692 8.173,56.571 C 8.183,56.563 8.193,56.554 8.202,56.546 C 8.658,57.194 9.13,57.826 9.598,58.384 Z M 13.464,63.101 C 13.455,63.107 13.446,63.113 13.437,63.119 C 12.671,62.433 11.924,61.711 11.229,60.965 C 10.884,60.594 10.549,60.224 10.219,59.848 C 9.86,59.408 9.513,58.953 9.171,58.503 C 8.794,58.009 8.446,57.485 8.097,56.971 C 8.046,56.897 7.997,56.824 7.953,56.749 C 7.955,56.747 7.957,56.746 7.958,56.744 C 9.554,59.051 11.402,61.19 13.464,63.101 Z M 8.294,57.847 C 8.163,57.723 8.059,57.573 7.958,57.423 C 7.924,57.374 7.89,57.325 7.868,57.268 C 8.007,57.47 8.148,57.669 8.294,57.847 Z M 12.937,58.455 C 12.638,58.827 12.359,59.203 12.07,59.583 C 11.992,59.685 11.899,59.781 11.82,59.884 C 11.797,59.912 11.801,59.955 11.829,59.978 C 11.857,60.001 11.9,59.997 11.923,59.969 C 12.002,59.864 12.093,59.767 12.175,59.666 C 12.263,59.557 12.349,59.441 12.434,59.331 C 12.756,58.914 13.14,58.389 13.564,58.076 C 13.71,57.968 13.842,57.883 13.998,57.79 C 14.046,57.761 14.06,57.699 14.032,57.651 C 14.003,57.604 13.941,57.589 13.894,57.618 C 13.584,57.769 13.147,58.193 12.937,58.455 Z M 12.089,61.265 C 11.841,61.053 11.615,60.812 11.39,60.569 C 10.784,59.91 10.193,59.22 9.635,58.52 C 9.65,58.523 9.665,58.521 9.677,58.516 C 10.44,59.471 11.244,60.388 12.089,61.265 Z M 67.114,59.22 C 66.962,59.451 66.805,59.679 66.643,59.905 C 66.517,59.99 66.39,60.075 66.262,60.16 C 66.265,60.155 66.269,60.15 66.273,60.145 C 66.361,60.053 66.444,59.956 66.526,59.858 C 66.829,59.492 67.127,59.125 67.417,58.755 C 67.316,58.91 67.215,59.065 67.114,59.22 Z M 66.771,58.964 C 66.649,59.121 66.523,59.277 66.344,59.494 C 66.54,59.254 66.682,59.072 66.822,58.888 C 66.809,58.916 66.79,58.94 66.771,58.964 Z M 65.346,59.765 C 65.152,60 64.953,60.231 64.758,60.466 C 64.365,60.941 63.933,61.394 63.511,61.848 C 63.504,61.852 63.497,61.856 63.491,61.86 C 63.467,61.872 63.443,61.884 63.42,61.897 C 63.918,61.371 64.399,60.832 64.873,60.279 C 65.193,59.903 65.507,59.52 65.814,59.128 C 65.833,59.118 65.853,59.108 65.874,59.097 C 65.697,59.319 65.525,59.545 65.346,59.765 Z M 65.773,60.157 C 65.934,59.982 66.168,59.712 66.344,59.494 C 66.171,59.703 65.937,59.972 65.773,60.157 Z M 65.503,60.461 C 65.47,60.496 65.439,60.531 65.402,60.559 C 65.502,60.454 65.603,60.345 65.773,60.157 C 65.637,60.31 65.57,60.386 65.503,60.461 Z M 66.009,60.765 C 65.803,61.039 65.593,61.312 65.373,61.575 C 65.087,61.918 64.807,62.265 64.511,62.6 C 63.668,63.549 62.745,64.478 61.78,65.302 C 61.07,65.908 60.303,66.515 59.526,67.033 C 59.324,67.168 59.117,67.298 58.916,67.433 C 58.448,67.747 57.948,68.012 57.457,68.287 C 56.231,68.97 54.83,69.534 53.491,69.941 C 53.514,69.928 53.539,69.915 53.564,69.901 C 53.97,69.704 54.365,69.505 54.767,69.297 C 54.955,69.199 55.154,69.105 55.335,68.996 C 55.38,68.968 55.426,68.941 55.472,68.914 C 55.808,68.775 56.14,68.627 56.467,68.469 C 56.647,68.383 56.836,68.301 57.012,68.207 C 57.285,68.061 57.569,67.92 57.836,67.766 C 58.057,67.638 58.278,67.5 58.501,67.377 C 58.669,67.284 58.834,67.168 58.997,67.066 C 59.466,66.769 59.925,66.454 60.37,66.122 C 61.761,65.083 63.011,63.962 64.192,62.689 C 64.825,62.004 65.429,61.29 65.988,60.537 C 66.11,60.459 66.234,60.381 66.354,60.301 C 66.24,60.456 66.124,60.61 66.009,60.765 Z M 12.794,61.967 C 12.754,61.991 12.41,61.644 12.089,61.265 C 12.316,61.508 12.548,61.744 12.794,61.967 Z M 13.752,62.893 C 13.748,62.896 13.745,62.898 13.741,62.901 C 13.434,62.608 13.119,62.297 12.794,61.967 C 13.107,62.282 13.427,62.59 13.752,62.893 Z M 64.241,62.345 C 63.9,62.732 63.545,63.115 63.179,63.48 C 62.336,64.321 61.481,65.108 60.536,65.836 C 60.338,65.988 60.143,66.145 59.938,66.287 C 59.747,66.421 59.558,66.56 59.367,66.694 C 59.21,66.805 59.042,66.909 58.88,67.014 C 58.514,67.253 58.131,67.495 57.751,67.711 L 56.935,68.065 C 57.042,68.001 57.148,67.937 57.25,67.872 C 57.527,67.693 57.804,67.502 58.085,67.331 C 58.341,67.175 58.589,66.987 58.837,66.816 C 59.318,66.484 59.809,66.138 60.268,65.777 C 60.553,65.552 60.84,65.321 61.129,65.102 C 61.492,64.825 61.832,64.508 62.19,64.223 C 62.338,64.085 62.494,63.952 62.647,63.82 C 62.918,63.585 63.187,63.334 63.447,63.086 C 63.728,62.818 64.028,62.551 64.295,62.271 C 64.321,62.242 64.348,62.214 64.376,62.185 C 64.33,62.239 64.286,62.293 64.241,62.345 Z M 62.776,62.608 C 62.304,63.078 61.828,63.532 61.339,63.981 C 61.122,64.161 60.903,64.34 60.683,64.518 C 60.897,64.329 61.109,64.141 61.322,63.953 C 61.797,63.533 62.252,63.089 62.699,62.64 C 62.833,62.506 62.965,62.371 63.096,62.235 C 63.13,62.218 63.164,62.201 63.199,62.182 C 63.059,62.326 62.916,62.467 62.776,62.608 Z M 15.919,64.771 C 15.911,64.781 15.902,64.791 15.894,64.801 C 15.233,64.266 14.574,63.689 13.876,63.029 C 13.88,63.025 13.884,63.022 13.889,63.019 C 14.544,63.626 15.221,64.21 15.919,64.771 Z M 14.397,63.938 C 14.304,63.875 14.22,63.804 14.138,63.733 C 13.949,63.571 13.76,63.407 13.573,63.241 C 13.581,63.235 13.59,63.23 13.598,63.225 C 13.861,63.466 14.128,63.704 14.397,63.938 Z M 61.405,64.398 C 61.341,64.448 61.278,64.499 61.214,64.55 C 61.409,64.395 61.601,64.234 61.792,64.072 C 61.662,64.178 61.536,64.291 61.405,64.398 Z M 60.843,64.857 C 60.809,64.886 60.775,64.916 60.878,64.818 C 60.99,64.73 61.102,64.641 61.214,64.55 C 61.092,64.655 60.968,64.756 60.843,64.857 Z M 18.488,66.668 C 18.477,66.677 18.466,66.686 18.455,66.696 C 17.961,66.37 17.475,66.01 17.002,65.659 C 16.673,65.415 16.35,65.166 16.028,64.908 C 16.037,64.898 16.046,64.888 16.054,64.879 C 16.84,65.505 17.652,66.102 18.488,66.668 Z M 16.821,65.859 C 16.952,65.951 17.082,66.043 17.217,66.126 C 17.031,66.092 16.439,65.647 15.903,65.131 C 16.252,65.445 16.535,65.655 16.821,65.859 Z M 20.845,68.147 C 20.98,68.226 21.118,68.304 21.255,68.382 C 21.257,68.396 21.261,68.411 21.269,68.424 C 20.895,68.219 20.525,68.006 20.161,67.785 C 19.859,67.6 19.55,67.414 19.254,67.222 C 19.029,67.076 18.807,66.923 18.582,66.778 C 18.566,66.767 18.55,66.757 18.534,66.748 C 18.545,66.739 18.556,66.73 18.567,66.722 C 19.308,67.221 20.068,67.696 20.845,68.147 Z M 25.585,68.15 C 25.531,68.209 25.468,68.259 25.413,68.314 C 25.267,68.459 25.094,68.555 24.913,68.647 C 24.862,68.673 24.785,68.69 24.727,68.713 C 24.671,68.732 24.64,68.796 24.659,68.853 C 24.678,68.909 24.742,68.94 24.798,68.921 C 24.866,68.894 24.937,68.874 25.003,68.847 C 25.22,68.755 25.462,68.583 25.628,68.415 C 25.781,68.26 25.935,68.105 26.086,67.946 C 26.402,67.612 26.686,67.368 27.155,67.299 C 27.217,67.287 27.257,67.227 27.245,67.165 C 27.233,67.104 27.173,67.064 27.112,67.076 C 26.443,67.167 26.017,67.682 25.585,68.15 Z M 21.399,68.462 C 22.232,68.923 23.089,69.35 23.953,69.749 C 24.537,70.018 25.131,70.256 25.725,70.501 C 25.984,70.608 26.25,70.702 26.512,70.799 C 26.802,70.904 27.091,71.006 27.405,71.088 C 27.396,71.092 27.389,71.097 27.381,71.103 C 27.368,71.109 27.358,71.119 27.351,71.129 C 26.869,70.965 26.387,70.796 25.914,70.611 C 25.421,70.418 24.939,70.209 24.452,70.004 C 23.808,69.732 23.159,69.419 22.537,69.098 C 22.141,68.893 21.746,68.686 21.356,68.471 C 21.37,68.471 21.385,68.468 21.399,68.462 Z M 35.195,70.314 C 34.296,70.803 33.42,71.284 32.562,71.844 C 32.515,71.874 32.502,71.937 32.531,71.983 C 32.561,72.03 32.624,72.043 32.671,72.014 C 33.034,71.779 33.397,71.559 33.77,71.34 C 34.315,71.021 34.892,70.748 35.444,70.442 C 35.812,70.239 36.181,70.013 36.53,69.779 C 36.709,69.659 36.882,69.528 37.062,69.41 C 36.443,69.713 35.799,69.986 35.195,70.314 Z M 25.59,71.096 C 25.67,71.129 25.751,71.162 25.832,71.195 C 25.696,71.148 25.562,71.099 25.429,71.051 C 25.221,70.977 25.018,70.899 24.813,70.817 C 25.071,70.913 25.33,71.006 25.59,71.096 Z M 49.5,71.098 C 49.472,71.096 49.444,71.099 49.417,71.115 C 49.425,71.111 49.432,71.108 49.441,71.105 C 49.443,71.104 49.444,71.103 49.443,71.099 C 49.513,71.086 49.58,71.061 49.647,71.036 C 49.596,71.057 49.548,71.077 49.5,71.098 Z M 29.259,71.689 C 29.961,71.887 30.669,72.062 31.389,72.183 C 31.313,72.176 31.238,72.164 31.163,72.152 C 30.922,72.113 30.682,72.071 30.447,72.028 C 29.566,71.808 28.676,71.579 27.822,71.29 C 27.741,71.262 27.66,71.234 27.58,71.207 C 27.592,71.2 27.605,71.192 27.617,71.184 C 28.159,71.364 28.704,71.532 29.259,71.689 Z M 47.262,72.365 C 46.893,72.497 46.514,72.61 46.146,72.745 C 45.863,72.829 45.583,72.921 45.298,72.999 C 45.021,73.075 44.739,73.141 44.461,73.215 C 44.26,73.268 44.041,73.31 43.836,73.351 C 43.026,73.516 42.228,73.645 41.406,73.731 C 37.621,74.124 33.779,73.687 30.106,72.689 C 30.343,72.734 30.582,72.776 30.82,72.817 C 31.028,72.868 31.235,72.918 31.442,72.965 C 33.247,73.377 35.136,73.687 36.987,73.778 C 37.921,73.824 38.892,73.848 39.825,73.799 C 40.284,73.774 40.738,73.739 41.197,73.699 C 41.811,73.647 42.423,73.561 43.03,73.454 C 43.505,73.371 44.004,73.284 44.47,73.163 C 44.735,73.094 45.001,73.028 45.266,72.958 C 45.563,72.879 45.864,72.778 46.16,72.693 C 46.547,72.556 46.942,72.431 47.329,72.292 C 47.538,72.217 47.744,72.136 47.951,72.06 C 48.074,72.022 48.2,71.98 48.321,71.931 C 47.717,72.199 47.489,72.283 47.262,72.365 Z M 46.18,72.126 C 46.167,72.129 46.154,72.132 46.141,72.133 C 46.216,72.122 46.299,72.098 46.383,72.074 C 46.311,72.095 46.246,72.111 46.18,72.126 Z M 45.179,72.309 C 45.505,72.28 45.823,72.21 46.141,72.133 C 45.75,72.242 45.389,72.305 45.179,72.309 Z M 44.242,72.887 C 43.707,73 43.18,73.104 42.641,73.196 C 42.035,73.3 41.414,73.358 40.803,73.418 C 40.611,73.436 40.418,73.443 40.226,73.454 C 39.673,73.486 39.13,73.505 38.577,73.505 C 37.407,73.505 36.239,73.428 35.017,73.263 C 35.863,73.303 36.709,73.317 37.549,73.32 C 37.996,73.321 38.448,73.316 38.972,73.257 C 39.511,73.332 40.051,73.313 40.589,73.282 C 40.932,73.262 41.275,73.236 41.907,73.126 C 41.986,73.13 42.062,73.123 42.139,73.116 C 42.654,73.067 43.163,73.012 43.655,72.92 C 43.96,72.915 44.257,72.866 44.554,72.814 C 44.449,72.841 44.346,72.864 44.242,72.887 Z" stroke-width="0.5" fill-rule="evenodd" stroke="none" fill="#000000" marker-start="none" marker-end="none" stroke-miterlimit="79.8403193612775"/></g></g></g><text x="0" y="90" fill="#000000" font-size="5px" font-weight="bold" font-family="'Helvetica Neue', Helvetica, Arial-Unicode, Arial, Sans-serif">Created by Denis Sazhin</text><text x="0" y="95" fill="#000000" font-size="5px" font-weight="bold" font-family="'Helvetica Neue', Helvetica, Arial-Unicode, Arial, Sans-serif">from the Noun Project</text></svg>